<svg xmlns="http://www.w3.org/2000/svg" width="1000" height="1290" viewBox="0 0 1000 1290">
  <rect width="100%" height="100%" fill="#f5f2ea"/>
  <path d="M43.8,936.3L43.4,933.9L43.0,931.4L42.6,928.9L42.3,926.4L41.9,923.9L41.5,921.4L41.1,918.9L40.8,916.4L40.4,913.9L40.0,911.4L39.7,908.9L39.3,906.4L39.0,903.9L38.7,901.4L38.3,898.9L38.0,896.4L37.7,893.9L37.4,891.3L37.1,888.8L36.9,886.3L36.6,883.8L36.3,881.3L36.1,878.8L35.8,876.3L35.5,873.8L35.3,871.3L35.0,868.7L34.8,866.2L34.6,863.7L34.3,861.2L34.1,858.7L33.9,856.2L33.7,853.7L33.5,851.1L33.3,848.6L33.1,846.1L32.9,843.6L32.7,841.0L32.6,838.5L32.4,836.0L32.3,833.4L32.1,830.9L32.0,828.4L31.9,825.8L31.8,823.3L31.7,820.7L31.7,818.2L31.6,815.6L31.6,813.1L31.6,810.5L31.6,808.0L31.6,805.5L31.6,802.9L31.6,800.4L31.6,797.8L31.7,795.3L31.8,792.8L31.8,790.3L31.9,787.7L32.0,785.2L32.0,782.7L32.1,780.1L32.2,777.6L32.3,775.1L32.5,772.5L32.6,770.0L32.8,767.5L32.9,764.9L33.1,762.4L33.3,759.9L33.5,757.3L33.7,754.8L33.9,752.3L34.1,749.8L34.3,747.3L34.5,744.8L34.7,742.3L34.9,739.8L35.1,737.2L35.4,734.7L35.6,732.1L35.9,729.6L36.2,727.0L36.6,724.5L36.9,721.9L37.4,719.3L37.9,716.7L38.4,714.1L39.0,711.6L39.6,709.0L40.3,706.5L41.0,704.0L41.7,701.6L42.5,699.1L43.2,696.7L44.0,694.3L44.8,691.8L45.6,689.4L46.4,687.0L47.2,684.6L48.1,682.2L48.9,679.9L49.7,677.5L50.5,675.2L51.2,672.9L52.0,670.6L52.6,668.2L53.3,665.9L53.9,663.6L54.4,661.2L54.9,658.9L55.3,656.6L55.7,654.3L55.9,652.1L56.1,649.9L56.1,647.6L56.1,645.3L56.0,642.9L55.8,640.4L55.6,637.9L55.5,635.4L55.3,632.9L55.1,630.3L55.1,627.4L55.2,624.3L55.9,620.9L57.3,617.6L59.4,614.5L62.0,612.0L64.8,610.1L67.6,608.8L70.3,607.8L72.8,606.9L75.4,606.1L77.9,605.4L80.4,604.7L83.0,604.1L85.5,603.5L88.1,603.0L90.7,602.6L93.4,602.2L96.1,601.9L98.8,601.7L101.4,601.5L104.0,601.5L106.5,601.4L109.0,601.4L111.4,601.3L113.7,601.1L116.1,600.9L118.6,600.7L121.0,600.4L123.5,600.1L125.9,599.8L128.4,599.5L130.9,599.1L133.4,598.8L135.9,598.5L138.4,598.2L140.9,597.9L143.4,597.6L145.9,597.3L148.4,597.0L150.9,596.7L153.4,596.4L155.9,596.1L158.4,595.8L160.9,595.5L163.4,595.2L165.8,594.9L168.3,594.6L170.8,594.2L173.2,593.9L175.7,593.5L178.2,593.2L180.7,592.8L183.1,592.5L185.6,592.1L188.1,591.7L190.5,591.3L192.9,590.9L195.4,590.5L197.8,590.0L200.2,589.6L202.6,589.1L205.0,588.5L207.4,588.0L209.8,587.4L212.2,586.8L214.6,586.2L217.0,585.6L219.4,584.9L221.8,584.3L224.2,583.6L226.6,582.9L229.0,582.2L231.4,581.5L233.8,580.8L236.2,580.1L238.6,579.4L241.0,578.7L243.4,578.0L245.8,577.3L248.2,576.5L250.6,575.8L253.0,575.1L255.4,574.3L257.8,573.6L260.2,572.9L262.6,572.1L265.0,571.4L267.4,570.7L269.8,570.0L272.2,569.2L274.6,568.5L277.0,567.8L279.5,567.1L281.9,566.4L284.3,565.7L286.7,565.0L289.2,564.3L291.6,563.6L294.0,562.9L296.4,562.2L298.8,561.5L301.2,560.8L303.6,560.1L306.1,559.4L308.5,558.7L310.9,558.0L313.3,557.4L315.8,556.7L318.2,556.0L320.7,555.4L323.1,554.7L325.6,554.1L328.1,553.5L330.6,552.9L333.1,552.3L335.6,551.8L338.1,551.2L340.6,550.7L343.1,550.2L345.6,549.8L348.1,549.3L350.6,548.9L353.1,548.5L355.6,548.1L358.1,547.7L360.6,547.3L363.1,546.9L365.6,546.6L368.1,546.2L370.6,545.9L373.2,545.6L375.7,545.2L378.2,545.0L380.8,544.7L383.4,544.5L386.0,544.3L388.6,544.2L391.1,544.1L393.6,544.0L396.0,543.9L398.4,543.7L400.8,543.5L403.1,543.2L405.4,542.8L407.7,542.4L409.9,541.8L412.1,541.2L414.4,540.4L416.6,539.6L418.9,538.8L421.2,537.9L423.5,536.9L425.8,536.0L428.1,535.0L430.3,534.0L432.6,533.0L434.9,532.0L437.1,531.0L439.4,530.0L441.7,528.9L443.9,527.9L446.2,526.8L448.4,525.7L450.7,524.7L452.9,523.6L455.2,522.5L457.5,521.4L459.7,520.3L462.0,519.2L464.2,518.1L466.5,517.0L468.8,515.9L471.0,514.8L473.3,513.7L475.6,512.6L477.8,511.6L480.1,510.5L482.4,509.4L484.7,508.3L487.0,507.3L489.3,506.2L491.6,505.2L493.9,504.1L496.2,503.1L498.5,502.1L500.8,501.1L503.1,500.1L505.5,499.0L507.8,498.0L510.2,497.0L512.6,496.1L515.0,495.2L517.4,494.3L519.9,493.4L522.4,492.6L524.9,491.9L527.3,491.2L529.8,490.5L532.3,489.9L534.8,489.3L537.3,488.7L539.8,488.1L542.3,487.6L544.7,487.0L547.2,486.5L549.7,486.0L552.2,485.5L554.7,485.1L557.2,484.6L559.7,484.1L562.1,483.7L564.6,483.2L567.2,482.8L569.7,482.4L572.2,482.0L574.7,481.7L577.2,481.3L579.8,481.0L582.3,480.7L584.8,480.4L587.3,480.1L589.7,479.7L592.2,479.4L594.7,479.1L597.1,478.8L599.6,478.4L602.1,478.0L604.6,477.7L607.1,477.3L609.6,477.0L612.0,476.6L614.5,476.3L617.0,475.9L619.4,475.5L621.9,475.1L624.3,474.7L626.7,474.2L629.0,473.7L631.4,473.2L633.8,472.6L636.1,472.0L638.4,471.3L640.7,470.6L642.9,469.8L645.2,469.0L647.4,468.1L649.5,467.1L651.7,466.0L653.9,465.0L656.0,463.8L658.1,462.6L660.2,461.4L662.2,460.2L664.3,458.9L666.3,457.5L668.2,456.1L670.2,454.7L672.0,453.2L673.9,451.7L675.7,450.1L677.5,448.5L679.2,446.8L680.9,445.1L682.6,443.3L684.2,441.6L685.9,439.8L687.5,437.9L689.0,436.0L690.6,434.2L692.1,432.2L693.6,430.3L695.0,428.4L696.4,426.4L697.7,424.4L698.9,422.4L700.0,420.4L701.1,418.3L702.0,416.2L702.9,414.1L703.7,411.9L704.4,409.6L704.9,407.4L705.4,405.1L705.8,402.9L706.1,400.6L706.3,398.3L706.4,396.0L706.3,393.7L706.2,391.3L706.0,388.9L705.8,386.5L705.6,384.0L705.3,381.6L705.0,379.1L704.6,376.7L704.2,374.3L703.8,372.0L703.3,369.6L702.7,367.3L702.1,365.0L701.4,362.7L700.7,360.4L699.9,358.1L699.1,355.8L698.2,353.5L697.3,351.2L696.4,348.9L695.4,346.6L694.5,344.3L693.5,342.0L692.5,339.8L691.6,337.6L690.5,335.4L689.5,333.4L688.3,331.6L687.0,329.8L685.6,328.3L684.1,326.8L682.4,325.4L680.5,324.0L678.4,322.6L676.3,321.2L674.2,319.6L672.1,317.9L670.1,316.2L668.1,314.4L666.3,312.7L664.4,311.0L662.6,309.2L660.8,307.5L659.0,305.9L657.1,304.2L655.3,302.6L653.4,301.0L651.4,299.3L649.5,297.5L647.5,295.6L645.6,293.5L643.8,291.1L642.3,288.7L641.0,286.2L639.8,283.8L638.8,281.3L637.8,278.7L637.0,276.2L636.2,273.5L635.6,270.8L635.2,268.1L634.9,265.2L634.9,262.2L635.1,259.3L635.7,256.4L636.4,253.7L637.2,251.1L638.1,248.6L639.1,246.1L640.2,243.7L641.3,241.3L642.4,239.0L643.6,236.6L644.8,234.4L646.1,232.1L647.4,229.8L648.8,227.6L650.2,225.4L651.7,223.2L653.2,221.1L654.8,219.0L656.3,217.0L657.9,214.9L659.5,213.0L661.1,211.0L662.7,209.1L664.3,207.1L665.9,205.2L667.4,203.2L669.0,201.3L670.5,199.3L672.1,197.4L673.6,195.4L675.1,193.4L676.6,191.4L678.1,189.5L679.6,187.5L681.2,185.5L682.7,183.5L684.2,181.5L685.7,179.4L687.2,177.4L688.7,175.4L690.2,173.4L691.7,171.4L693.2,169.4L694.7,167.4L696.2,165.4L697.7,163.4L699.2,161.3L700.7,159.3L702.2,157.3L703.7,155.3L705.2,153.3L706.7,151.3L708.2,149.3L709.7,147.2L711.2,145.2L712.7,143.2L714.1,141.2L715.6,139.2L717.1,137.1L718.6,135.1L720.1,133.1L721.6,131.1L723.1,129.1L724.6,127.0L726.1,125.0L727.6,123.0L729.1,121.0L730.6,119.0L732.1,116.9L733.5,114.9L735.0,112.9L736.5,110.9L738.0,108.9L739.5,106.8L741.0,104.8L742.5,102.8L744.0,100.8L745.5,98.8L747.0,96.7L748.4,94.7L749.9,92.7L751.4,90.7L752.9,88.6L754.4,86.6L755.9,84.6L757.4,82.6L758.9,80.5L760.3,78.5L761.8,76.5L763.3,74.5L764.8,72.4L766.3,70.4L767.8,68.4L769.3,66.4L770.7,64.3L772.2,62.3L773.7,60.3L775.2,58.3L776.7,56.2L778.2,54.2L779.6,52.2L781.1,50.2L782.5,48.2L783.8,46.2L785.2,44.1L786.7,41.8L788.6,39.4L791.1,37.2L793.9,35.3L796.9,34.0L800.0,33.2L803.0,32.7L806.1,32.6L809.2,32.9L812.1,33.5L814.9,34.3L817.6,35.2L820.2,36.4L822.8,37.8L825.2,39.4L827.5,41.2L829.7,43.1L831.7,45.2L833.5,47.4L835.2,49.7L836.7,52.2L838.0,54.7L839.2,57.4L840.1,60.2L840.8,63.0L841.3,65.9L841.6,68.6L841.7,71.2L841.9,73.8L841.9,76.4L842.0,78.9L842.1,81.4L842.2,83.9L842.3,86.3L842.4,88.6L842.7,90.8L843.1,92.9L843.6,94.9L844.3,96.8L845.2,98.8L846.3,100.7L847.5,102.7L848.8,104.6L850.1,106.5L851.6,108.4L853.1,110.4L854.7,112.4L856.3,114.4L857.8,116.4L859.3,118.5L860.8,120.5L862.3,122.6L863.8,124.7L865.3,126.9L866.7,129.0L868.1,131.3L869.4,133.5L870.7,135.7L872.0,138.0L873.2,140.4L874.4,142.8L875.5,145.2L876.5,147.7L877.4,150.1L878.2,152.3L879.1,154.1L880.0,155.6L880.9,156.7L882.0,157.5L883.1,158.0L884.5,158.2L886.0,158.1L887.5,157.8L889.0,157.1L890.4,156.3L891.6,155.2L892.6,153.9L893.4,152.5L893.9,151.1L894.2,149.6L894.1,148.2L893.7,146.9L893.0,145.6L892.0,144.3L890.7,143.1L889.0,141.8L886.9,140.3L884.7,138.7L882.6,136.8L880.6,134.9L878.7,132.9L877.0,130.9L875.3,129.0L873.6,127.0L872.0,125.1L870.4,123.1L868.8,121.1L867.2,119.1L865.7,117.1L864.1,115.0L862.6,113.0L861.1,111.0L859.5,108.9L858.0,106.8L856.6,104.7L855.1,102.5L853.7,100.2L852.3,97.8L851.0,95.2L849.9,92.4L849.1,89.3L848.7,86.2L848.7,83.0L849.1,80.0L849.8,77.0L850.7,74.3L851.8,71.6L853.1,68.9L855.0,66.1L857.3,63.7L859.9,61.8L862.6,60.3L865.1,59.1L867.6,58.0L870.1,57.1L872.6,56.2L875.2,55.4L877.8,54.7L880.3,54.1L882.8,53.6L885.2,53.0L887.6,52.5L889.9,51.9L892.2,51.2L894.4,50.5L896.7,49.7L898.9,48.8L901.3,47.9L903.6,47.0L905.9,46.1L908.2,45.1L910.6,44.2L912.9,43.3L915.3,42.3L917.6,41.4L920.0,40.5L922.5,39.6L925.0,38.7L927.6,38.0L930.2,37.3L932.9,36.7L935.5,36.3L938.2,35.9L940.9,35.6L943.7,35.5L946.7,35.6L949.6,35.9L952.7,36.6L955.7,37.8L958.7,39.5L961.4,41.9L963.5,44.8L964.9,47.8L965.7,50.8L966.3,53.7L966.6,56.4L966.9,59.0L967.2,61.6L967.4,64.2L967.5,66.8L967.6,69.4L967.7,71.9L967.7,74.5L967.8,77.0L967.8,79.6L967.8,82.1L967.7,84.7L967.7,87.2L967.7,89.7L967.6,92.3L967.5,94.8L967.4,97.3L967.3,99.9L967.1,102.4L967.0,104.9L966.9,107.4L966.7,110.0L966.6,112.5L966.4,115.0L966.2,117.5L966.1,120.0L965.9,122.6L965.7,125.1L965.5,127.6L965.3,130.1L965.1,132.6L964.9,135.2L964.7,137.7L964.4,140.2L964.2,142.7L964.0,145.2L963.7,147.8L963.4,150.3L963.2,152.8L962.9,155.3L962.6,157.8L962.3,160.3L962.0,162.9L961.6,165.4L961.3,167.9L961.0,170.4L960.6,172.9L960.3,175.4L959.9,177.9L959.6,180.4L959.2,182.9L958.8,185.4L958.4,187.9L958.0,190.4L957.6,192.9L957.2,195.4L956.8,197.9L956.4,200.4L956.0,202.9L955.6,205.3L955.1,207.8L954.7,210.3L954.2,212.8L953.8,215.3L953.3,217.8L952.9,220.3L952.4,222.7L951.9,225.2L951.4,227.7L950.9,230.2L950.4,232.7L949.9,235.1L949.4,237.6L948.9,240.1L948.4,242.6L947.8,245.0L947.3,247.5L946.7,250.0L946.1,252.5L945.5,254.9L944.9,257.4L944.3,259.9L943.7,262.3L943.1,264.8L942.4,267.2L941.7,269.7L941.1,272.2L940.4,274.6L939.7,277.1L938.9,279.5L938.2,281.9L937.4,284.4L936.6,286.8L935.9,289.2L935.1,291.6L934.2,294.0L933.4,296.5L932.5,298.9L931.6,301.3L930.7,303.7L929.8,306.1L928.9,308.4L927.9,310.8L926.9,313.2L925.8,315.5L924.8,317.9L923.7,320.2L922.6,322.5L921.5,324.8L920.4,327.1L919.2,329.4L918.1,331.7L916.9,334.0L915.7,336.2L914.4,338.5L913.2,340.7L912.0,342.9L910.7,345.1L909.4,347.3L908.1,349.5L906.8,351.7L905.5,353.9L904.1,356.1L902.8,358.2L901.4,360.4L900.0,362.5L898.6,364.6L897.2,366.8L895.8,368.9L894.3,371.0L892.8,373.1L891.3,375.2L889.8,377.2L888.3,379.3L886.7,381.3L885.2,383.3L883.6,385.4L882.0,387.3L880.4,389.3L878.8,391.3L877.2,393.3L875.6,395.2L874.0,397.2L872.3,399.1L870.7,401.0L869.1,402.9L867.5,404.9L865.8,406.8L864.2,408.7L862.6,410.6L861.0,412.5L859.4,414.4L857.8,416.4L856.2,418.3L854.6,420.3L853.0,422.2L851.3,424.1L849.7,426.1L848.0,428.0L846.3,429.9L844.6,431.8L842.9,433.7L841.1,435.6L839.4,437.5L837.6,439.3L835.8,441.1L833.9,443.0L832.0,444.8L830.1,446.5L828.2,448.3L826.2,450.0L824.2,451.7L822.2,453.3L820.1,454.9L818.1,456.5L816.0,458.0L813.8,459.5L811.7,460.9L809.6,462.4L807.4,463.8L805.3,465.2L803.1,466.5L800.9,467.9L798.7,469.2L796.6,470.5L794.4,471.8L792.2,473.1L790.0,474.3L787.7,475.6L785.5,476.8L783.3,478.1L781.1,479.3L778.9,480.5L776.7,481.7L774.5,482.9L772.2,484.1L770.0,485.3L767.8,486.5L765.6,487.7L763.4,488.9L761.2,490.1L758.9,491.3L756.7,492.5L754.4,493.6L752.1,494.8L749.8,495.9L747.5,497.0L745.3,498.1L743.0,499.2L740.7,500.3L738.4,501.4L736.1,502.4L733.8,503.5L731.6,504.6L729.3,505.6L727.0,506.7L724.8,507.8L722.5,508.8L720.3,509.9L718.0,511.0L715.8,512.1L713.5,513.2L711.2,514.3L709.0,515.4L706.7,516.5L704.5,517.6L702.2,518.7L699.9,519.8L697.7,520.9L695.4,522.0L693.1,523.0L690.8,524.1L688.6,525.2L686.3,526.3L684.0,527.4L681.7,528.4L679.4,529.5L677.1,530.6L674.8,531.6L672.5,532.7L670.2,533.7L667.9,534.7L665.6,535.8L663.2,536.8L660.9,537.8L658.5,538.8L656.2,539.7L653.8,540.7L651.5,541.6L649.1,542.6L646.7,543.5L644.4,544.4L642.0,545.3L639.6,546.2L637.2,547.0L634.8,547.9L632.4,548.7L630.0,549.6L627.6,550.4L625.2,551.2L622.7,552.0L620.3,552.7L617.9,553.5L615.5,554.2L613.0,555.0L610.6,555.7L608.2,556.4L605.7,557.1L603.3,557.8L600.8,558.5L598.4,559.1L595.9,559.8L593.5,560.4L591.0,561.1L588.6,561.7L586.1,562.3L583.7,562.9L581.2,563.5L578.7,564.1L576.3,564.7L573.8,565.3L571.4,565.9L568.9,566.4L566.4,567.0L564.0,567.5L561.5,568.1L559.0,568.6L556.6,569.2L554.1,569.7L551.6,570.2L549.2,570.8L546.7,571.3L544.2,571.8L541.7,572.3L539.2,572.8L536.7,573.3L534.2,573.7L531.7,574.2L529.2,574.6L526.7,575.0L524.2,575.4L521.7,575.8L519.2,576.2L516.6,576.6L514.2,576.9L511.7,577.3L509.2,577.6L506.7,578.0L504.2,578.4L501.8,578.7L499.3,579.1L496.8,579.5L494.3,579.9L491.8,580.3L489.2,580.6L486.7,580.9L484.2,581.2L481.8,581.5L479.5,581.8L477.4,582.2L475.7,582.7L474.4,583.2L473.5,583.9L472.9,584.6L472.4,585.7L471.9,587.1L471.6,589.1L471.4,591.5L471.0,594.3L470.4,597.1L469.6,600.0L468.4,603.0L466.6,606.2L463.9,609.1L460.7,611.2L457.5,612.5L454.7,613.2L452.2,613.8L449.8,614.4L447.2,615.0L444.4,615.6L441.3,615.9L438.0,615.9L434.6,615.3L431.4,614.1L428.7,612.6L426.3,611.1L424.2,609.7L422.4,608.4L420.6,607.5L419.0,606.9L417.3,606.5L415.3,606.4L413.1,606.4L410.8,606.5L408.4,606.6L405.9,606.8L403.5,607.0L401.0,607.3L398.5,607.5L396.1,607.8L393.6,608.1L391.1,608.4L388.6,608.7L386.1,609.0L383.7,609.3L381.2,609.6L378.7,609.9L376.2,610.2L373.7,610.5L371.2,610.9L368.8,611.2L366.3,611.5L363.8,611.9L361.3,612.2L358.8,612.5L356.3,612.9L353.8,613.2L351.3,613.5L348.9,613.9L346.4,614.2L343.9,614.6L341.4,614.9L338.9,615.3L336.4,615.6L333.9,616.0L331.5,616.3L329.0,616.6L326.5,617.0L324.0,617.3L321.5,617.7L319.0,618.0L316.5,618.4L314.0,618.7L311.6,619.1L309.1,619.4L306.6,619.8L304.1,620.1L301.6,620.5L299.1,620.8L296.6,621.2L294.1,621.5L291.6,621.9L289.1,622.2L286.7,622.5L284.2,622.9L281.7,623.2L279.2,623.6L276.7,623.9L274.2,624.2L271.7,624.6L269.3,624.9L266.8,625.3L264.3,625.6L261.8,626.0L259.3,626.3L256.8,626.7L254.3,627.0L251.9,627.4L249.4,627.7L246.9,628.1L244.4,628.5L241.9,628.8L239.4,629.2L237.0,629.6L234.5,629.9L232.0,630.3L229.5,630.7L227.0,631.0L224.6,631.4L222.1,631.8L219.6,632.1L217.1,632.5L214.6,632.9L212.2,633.3L209.7,633.7L207.2,634.0L204.7,634.4L202.2,634.8L199.8,635.2L197.3,635.6L194.8,636.0L192.3,636.4L189.8,636.8L187.4,637.2L184.9,637.5L182.4,637.9L179.9,638.3L177.4,638.7L174.9,639.1L172.4,639.5L170.0,639.9L167.5,640.2L165.0,640.6L162.5,641.0L160.0,641.3L157.5,641.7L155.0,642.1L152.4,642.4L150.0,642.7L147.9,643.0L146.1,643.5L144.6,644.2L143.2,645.2L141.8,646.6L140.5,648.2L139.2,650.0L137.9,651.9L136.7,653.9L135.6,655.9L134.5,658.1L133.4,660.2L132.3,662.5L131.2,664.7L130.2,667.0L129.1,669.2L128.0,671.5L127.0,673.8L125.9,676.1L124.8,678.3L123.8,680.6L122.8,682.8L121.8,685.1L120.8,687.4L119.8,689.6L118.8,691.9L117.9,694.2L117.0,696.5L116.1,698.8L115.2,701.1L114.3,703.4L113.4,705.8L112.6,708.1L111.8,710.4L111.0,712.7L110.3,715.0L109.6,717.4L109.0,719.7L108.4,722.0L107.9,724.4L107.4,726.8L106.9,729.2L106.5,731.6L106.0,734.1L105.6,736.5L105.2,739.0L104.8,741.4L104.4,743.9L104.1,746.3L103.8,748.7L103.5,751.2L103.2,753.6L103.0,756.1L102.8,758.5L102.6,760.9L102.4,763.4L102.3,765.8L102.2,768.3L102.2,770.8L102.1,773.3L102.1,775.8L102.1,778.2L102.0,780.7L102.0,783.2L102.0,785.7L102.0,788.2L102.1,790.7L102.1,793.2L102.1,795.7L102.1,798.2L102.2,800.7L102.2,803.2L102.3,805.8L102.3,808.3L102.3,810.8L102.4,813.2L102.5,815.5L102.7,817.6L103.2,819.5L103.8,821.5L104.6,823.3L105.7,825.1L106.9,826.9L108.2,828.5L109.7,830.2L111.4,831.7L113.1,833.2L114.9,834.7L116.8,836.1L118.8,837.5L120.9,838.9L123.0,840.4L125.1,841.9L127.2,843.5L129.2,845.1L131.3,846.7L133.3,848.5L135.3,850.4L137.3,852.6L139.1,855.0L140.6,857.5L141.9,860.1L142.9,862.8L143.7,865.6L144.3,868.3L144.8,871.1L145.1,873.7L145.3,876.2L145.6,878.7L145.9,881.1L146.2,883.5L146.6,885.9L147.0,888.4L147.4,890.9L147.8,893.4L148.2,895.8L148.6,898.3L149.0,900.8L149.4,903.3L149.8,905.7L150.2,908.2L150.6,910.7L151.0,913.2L151.5,915.6L151.9,918.1L152.3,920.6L152.7,923.1L153.1,925.5L153.5,928.0L154.0,930.5L154.4,932.9L154.8,935.4L155.3,937.9L155.7,940.4L156.1,942.8L156.5,945.3L157.0,947.8L157.4,950.2L157.9,952.7L158.3,955.2L158.7,957.6L159.2,960.1L159.6,962.6L160.1,965.0L160.6,967.5L161.0,970.0L161.5,972.4L162.0,974.9L162.4,977.3L162.9,979.7L163.4,982.2L163.9,984.6L164.5,987.0L165.1,989.4L165.7,991.8L166.3,994.1L167.0,996.6L167.6,999.0L168.3,1001.5L168.9,1004.2L169.4,1007.0L169.6,1010.0L169.4,1013.3L168.6,1016.6L167.2,1019.6L165.4,1022.3L163.3,1024.6L161.1,1026.5L158.9,1028.3L156.6,1029.8L154.3,1031.3L151.9,1032.6L149.5,1033.8L147.3,1034.8L145.5,1035.7L144.3,1036.6L143.5,1037.6L143.0,1038.9L142.6,1040.5L142.5,1042.5L142.6,1044.6L142.9,1046.8L143.2,1049.0L143.7,1051.3L144.2,1053.7L144.8,1056.0L145.5,1058.3L146.2,1060.6L146.9,1063.0L147.7,1065.3L148.5,1067.6L149.3,1070.0L150.2,1072.3L151.1,1074.6L151.9,1077.0L152.8,1079.3L153.7,1081.7L154.6,1084.0L155.5,1086.3L156.4,1088.7L157.3,1091.0L158.2,1093.3L159.1,1095.6L160.0,1097.9L161.0,1100.2L161.9,1102.5L162.9,1104.7L163.9,1107.0L165.0,1109.2L166.0,1111.5L167.1,1113.7L168.2,1115.9L169.3,1118.1L170.4,1120.2L171.6,1122.4L172.8,1124.5L174.0,1126.6L175.3,1128.8L176.5,1130.9L177.9,1132.9L179.2,1135.0L180.5,1137.1L181.9,1139.2L183.3,1141.2L184.7,1143.2L186.1,1145.2L187.5,1147.2L189.0,1149.2L190.5,1151.1L192.0,1153.0L193.5,1154.9L195.1,1156.8L196.7,1158.6L198.3,1160.5L200.0,1162.3L201.7,1164.1L203.3,1165.9L205.0,1167.6L206.8,1169.3L208.5,1171.0L210.3,1172.7L212.1,1174.3L213.9,1175.8L215.7,1177.2L217.6,1178.6L219.5,1179.9L221.5,1181.1L223.6,1182.3L225.7,1183.4L227.9,1184.5L230.1,1185.6L232.3,1186.7L234.6,1187.8L236.8,1188.9L239.0,1190.0L241.3,1191.0L243.5,1192.0L245.8,1193.1L248.1,1194.1L250.3,1195.0L252.6,1196.0L255.0,1197.0L257.6,1198.2L260.2,1199.8L262.8,1201.8L265.0,1204.2L266.8,1206.7L268.2,1209.3L269.4,1211.8L270.5,1214.4L271.4,1217.1L272.1,1219.9L272.7,1222.9L272.8,1226.1L272.5,1229.4L271.5,1232.8L269.8,1235.9L267.4,1238.6L264.8,1240.7L262.1,1242.2L259.5,1243.4L256.9,1244.4L254.4,1245.3L251.9,1246.1L249.4,1246.8L246.9,1247.5L244.5,1248.2L242.0,1248.8L239.5,1249.5L237.0,1250.1L234.6,1250.7L232.1,1251.3L229.6,1251.8L227.2,1252.4L224.7,1252.9L222.2,1253.5L219.7,1254.0L217.2,1254.5L214.7,1255.0L212.2,1255.5L209.6,1255.9L207.1,1256.3L204.5,1256.7L201.9,1257.0L199.3,1257.3L196.7,1257.5L194.1,1257.6L191.4,1257.7L188.8,1257.8L186.1,1257.7L183.5,1257.6L180.9,1257.4L178.1,1257.2L175.2,1256.7L172.3,1255.9L169.3,1254.8L166.5,1253.2L164.1,1251.5L162.0,1249.7L159.8,1247.8L157.6,1245.5L155.7,1242.4L154.5,1238.9L154.1,1235.6L154.0,1232.8L154.0,1230.4L153.9,1228.2L153.6,1226.1L153.1,1223.8L152.6,1221.5L152.0,1219.2L151.4,1216.9L150.8,1214.8L150.0,1212.8L149.1,1211.0L148.1,1209.1L146.8,1207.3L145.4,1205.5L144.0,1203.7L142.4,1201.9L140.8,1200.0L139.1,1198.2L137.4,1196.3L135.7,1194.4L134.0,1192.5L132.3,1190.5L130.7,1188.4L129.0,1186.3L127.5,1184.2L126.0,1182.0L124.5,1179.9L123.1,1177.7L121.8,1175.5L120.4,1173.4L119.1,1171.2L117.8,1169.0L116.5,1166.9L115.2,1164.8L113.9,1162.7L112.6,1160.6L111.3,1158.6L109.9,1156.6L108.5,1154.6L107.0,1152.5L105.5,1150.4L104.1,1148.2L102.6,1145.9L101.3,1143.6L100.0,1141.2L98.8,1138.8L97.7,1136.4L96.7,1133.9L95.7,1131.5L94.8,1129.1L93.9,1126.7L93.0,1124.2L92.2,1121.8L91.3,1119.4L90.5,1117.0L89.8,1114.6L89.0,1112.2L88.2,1109.8L87.4,1107.4L86.6,1105.0L85.8,1102.6L85.1,1100.2L84.3,1097.8L83.5,1095.4L82.8,1093.0L82.0,1090.6L81.3,1088.2L80.6,1085.8L79.8,1083.4L79.1,1080.9L78.4,1078.5L77.6,1076.1L76.9,1073.7L76.2,1071.3L75.5,1068.9L74.8,1066.5L74.1,1064.0L73.4,1061.6L72.7,1059.2L72.0,1056.8L71.3,1054.4L70.6,1052.0L69.9,1049.5L69.2,1047.1L68.5,1044.7L67.8,1042.3L67.1,1039.9L66.4,1037.4L65.7,1035.0L65.0,1032.6L64.3,1030.2L63.7,1027.8L63.0,1025.3L62.3,1022.9L61.6,1020.5L61.0,1018.1L60.3,1015.6L59.6,1013.2L59.0,1010.8L58.3,1008.3L57.6,1005.9L57.0,1003.5L56.3,1001.0L55.7,998.6L55.0,996.2L54.4,993.7L53.8,991.2L53.1,988.8L52.5,986.3L52.0,983.8L51.4,981.3L50.8,978.8L50.3,976.3L49.8,973.8L49.3,971.3L48.8,968.8L48.4,966.2L48.0,963.7L47.6,961.2L47.2,958.7L46.8,956.2L46.4,953.7L46.0,951.2L45.7,948.7L45.3,946.2L44.9,943.8L44.5,941.3L44.2,938.8Z" fill="none" stroke="#888" stroke-width="1.5"/>
  <path d="M56.2,934.4L55.8,931.9L55.4,929.5L55.0,927.0L54.7,924.5L54.3,922.0L53.9,919.5L53.5,917.1L53.2,914.6L52.8,912.1L52.4,909.7L52.1,907.2L51.7,904.7L51.4,902.2L51.1,899.8L50.8,897.3L50.4,894.8L50.1,892.4L49.9,889.9L49.6,887.4L49.3,884.9L49.0,882.4L48.7,880.0L48.5,877.5L48.2,875.0L47.9,872.5L47.7,870.0L47.4,867.5L47.2,865.0L47.0,862.6L46.7,860.1L46.5,857.6L46.3,855.1L46.0,852.6L45.8,850.1L45.6,847.6L45.4,845.1L45.2,842.7L45.1,840.2L44.9,837.7L44.7,835.2L44.6,832.7L44.4,830.3L44.3,827.8L44.2,825.3L44.1,822.8L44.0,820.4L43.9,817.9L43.9,815.4L43.8,812.9L43.8,810.5L43.8,808.0L43.8,805.5L43.8,803.0L43.8,800.5L43.8,798.0L43.9,795.5L43.9,793.0L44.0,790.5L44.0,788.1L44.1,785.6L44.2,783.1L44.2,780.6L44.3,778.1L44.4,775.6L44.5,773.1L44.6,770.6L44.8,768.2L44.9,765.7L45.1,763.2L45.2,760.7L45.4,758.2L45.6,755.7L45.8,753.2L46.0,750.7L46.2,748.2L46.4,745.7L46.5,743.2L46.7,740.8L47.0,738.3L47.2,735.8L47.4,733.4L47.7,730.9L48.0,728.5L48.3,726.1L48.6,723.7L49.0,721.3L49.4,719.0L49.9,716.6L50.4,714.3L51.0,712.0L51.6,709.6L52.3,707.3L53.0,704.9L53.7,702.5L54.4,700.2L55.1,697.8L55.9,695.4L56.6,693.1L57.4,690.8L58.2,688.4L59.0,686.1L59.9,683.7L60.7,681.2L61.5,678.8L62.3,676.3L63.0,673.8L63.7,671.3L64.4,668.8L65.0,666.3L65.6,663.7L66.2,661.1L66.6,658.5L67.1,655.8L67.3,653.1L67.5,650.3L67.5,647.5L67.5,644.8L67.3,642.2L67.2,639.7L67.0,637.1L66.8,634.6L66.6,632.1L66.5,629.7L66.4,627.6L66.5,625.7L66.8,624.2L67.3,622.9L68.0,621.8L69.0,620.8L70.3,620.0L72.1,619.1L74.1,618.4L76.3,617.6L78.6,616.9L80.9,616.2L83.2,615.6L85.5,615.0L87.9,614.5L90.2,614.0L92.5,613.6L94.9,613.3L97.1,613.0L99.5,612.8L101.8,612.7L104.3,612.6L106.8,612.6L109.4,612.5L112.0,612.4L114.6,612.2L117.2,612.0L119.8,611.7L122.3,611.4L124.9,611.1L127.4,610.7L129.9,610.4L132.4,610.1L134.8,609.7L137.3,609.4L139.8,609.1L142.3,608.8L144.8,608.5L147.2,608.2L149.7,607.9L152.2,607.6L154.7,607.3L157.2,607.0L159.7,606.7L162.2,606.4L164.7,606.0L167.2,605.7L169.8,605.4L172.3,605.0L174.8,604.7L177.3,604.3L179.8,603.9L182.3,603.6L184.7,603.2L187.2,602.8L189.8,602.4L192.3,602.0L194.8,601.6L197.3,601.1L199.8,600.6L202.4,600.1L204.9,599.6L207.4,599.0L209.9,598.4L212.3,597.8L214.8,597.2L217.3,596.6L219.8,595.9L222.2,595.2L224.7,594.6L227.1,593.9L229.5,593.2L231.9,592.5L234.4,591.8L236.8,591.0L239.2,590.3L241.6,589.6L244.0,588.9L246.4,588.1L248.8,587.4L251.3,586.7L253.7,585.9L256.1,585.2L258.5,584.4L260.9,583.7L263.3,583.0L265.7,582.2L268.1,581.5L270.5,580.7L272.9,580.0L275.3,579.3L277.6,578.5L280.0,577.8L282.4,577.1L284.8,576.4L287.2,575.7L289.6,575.0L292.0,574.3L294.4,573.6L296.9,572.9L299.3,572.2L301.7,571.5L304.1,570.8L306.5,570.1L308.9,569.4L311.3,568.7L313.7,568.0L316.1,567.3L318.5,566.6L320.9,566.0L323.3,565.3L325.7,564.7L328.1,564.1L330.5,563.5L332.9,562.9L335.3,562.3L337.7,561.8L340.2,561.3L342.6,560.8L345.0,560.3L347.4,559.8L349.9,559.4L352.3,559.0L354.8,558.5L357.2,558.1L359.7,557.7L362.1,557.4L364.6,557.0L367.0,556.6L369.5,556.3L372.0,556.0L374.4,555.6L376.9,555.3L379.3,555.0L381.8,554.8L384.2,554.6L386.6,554.4L389.1,554.3L391.5,554.2L394.1,554.1L396.6,553.9L399.2,553.7L401.9,553.5L404.6,553.2L407.2,552.7L409.9,552.2L412.5,551.5L415.1,550.7L417.6,549.9L420.1,549.0L422.6,548.1L424.9,547.1L427.3,546.1L429.6,545.2L431.9,544.2L434.3,543.2L436.6,542.2L439.0,541.1L441.3,540.1L443.6,539.0L445.9,537.9L448.2,536.9L450.4,535.8L452.7,534.7L455.0,533.6L457.2,532.5L459.5,531.4L461.8,530.3L464.0,529.2L466.3,528.1L468.6,527.0L470.8,525.9L473.1,524.8L475.3,523.7L477.6,522.6L479.8,521.5L482.1,520.4L484.3,519.3L486.6,518.2L488.8,517.2L491.1,516.1L493.4,515.1L495.6,514.1L497.9,513.0L500.2,512.0L502.5,511.0L504.8,510.0L507.1,508.9L509.3,507.9L511.6,507.0L513.9,506.0L516.1,505.1L518.4,504.2L520.7,503.4L523.0,502.6L525.3,501.9L527.6,501.1L529.9,500.5L532.3,499.8L534.7,499.2L537.1,498.6L539.5,498.0L541.9,497.5L544.3,496.9L546.7,496.4L549.2,495.9L551.6,495.4L554.0,494.9L556.5,494.5L558.9,494.0L561.4,493.5L563.8,493.1L566.3,492.6L568.7,492.2L571.2,491.8L573.6,491.4L576.1,491.1L578.5,490.7L581.0,490.4L583.5,490.1L585.9,489.8L588.4,489.4L590.9,489.1L593.4,488.8L596.0,488.4L598.5,488.1L601.0,487.7L603.5,487.4L605.9,487.0L608.4,486.6L610.9,486.3L613.4,485.9L615.9,485.5L618.4,485.2L620.9,484.8L623.4,484.3L626.0,483.9L628.5,483.4L631.0,482.9L633.6,482.3L636.1,481.6L638.6,480.9L641.1,480.2L643.6,479.4L646.1,478.5L648.6,477.6L651.0,476.6L653.4,475.5L655.8,474.4L658.1,473.2L660.4,471.9L662.7,470.7L665.0,469.3L667.2,468.0L669.4,466.6L671.5,465.1L673.7,463.6L675.8,462.0L677.8,460.4L679.9,458.7L681.8,457.0L683.8,455.2L685.6,453.4L687.5,451.5L689.3,449.6L691.0,447.7L692.8,445.8L694.4,443.9L696.1,441.9L697.7,439.9L699.3,437.9L700.9,435.8L702.4,433.7L703.9,431.5L705.4,429.3L706.8,427.0L708.1,424.7L709.3,422.2L710.4,419.8L711.4,417.3L712.3,414.7L713.1,412.1L713.8,409.5L714.4,406.9L714.8,404.2L715.2,401.5L715.4,398.8L715.5,396.1L715.4,393.4L715.3,390.7L715.1,388.1L714.8,385.5L714.6,383.0L714.3,380.4L713.9,377.9L713.6,375.3L713.1,372.8L712.6,370.2L712.1,367.6L711.5,365.1L710.8,362.5L710.1,360.0L709.3,357.5L708.5,355.1L707.6,352.6L706.7,350.2L705.7,347.8L704.8,345.5L703.8,343.1L702.8,340.8L701.8,338.5L700.8,336.1L699.7,333.7L698.6,331.3L697.3,328.9L695.8,326.5L694.1,324.2L692.2,322.0L690.1,320.0L687.9,318.2L685.7,316.6L683.6,315.2L681.6,313.8L679.7,312.4L677.9,310.9L676.1,309.3L674.3,307.7L672.5,306.0L670.7,304.3L668.9,302.6L667.1,300.8L665.2,299.0L663.3,297.3L661.4,295.6L659.5,294.0L657.7,292.3L655.9,290.7L654.3,289.1L652.9,287.5L651.6,285.8L650.5,284.0L649.5,282.0L648.5,279.9L647.6,277.8L646.8,275.6L646.1,273.4L645.5,271.2L645.0,269.0L644.6,266.8L644.4,264.7L644.4,262.6L644.6,260.6L645.0,258.5L645.6,256.4L646.3,254.2L647.1,252.0L648.0,249.8L648.9,247.6L650.0,245.4L651.0,243.3L652.1,241.1L653.3,239.0L654.4,236.8L655.7,234.8L656.9,232.7L658.2,230.7L659.6,228.8L661.0,226.8L662.5,224.8L663.9,222.9L665.5,221.0L667.0,219.1L668.6,217.1L670.2,215.2L671.8,213.2L673.4,211.3L675.0,209.3L676.6,207.3L678.2,205.4L679.7,203.4L681.3,201.4L682.8,199.4L684.4,197.4L685.9,195.3L687.4,193.3L688.9,191.3L690.4,189.3L692.0,187.3L693.5,185.3L695.0,183.3L696.5,181.3L698.0,179.3L699.5,177.3L701.0,175.3L702.5,173.2L704.0,171.2L705.5,169.2L707.0,167.2L708.5,165.2L710.0,163.2L711.5,161.2L713.0,159.1L714.5,157.1L716.0,155.1L717.5,153.1L719.0,151.1L720.5,149.1L722.0,147.0L723.5,145.0L725.0,143.0L726.5,141.0L728.0,139.0L729.5,136.9L731.0,134.9L732.5,132.9L734.0,130.9L735.5,128.9L737.0,126.9L738.5,124.8L740.0,122.8L741.5,120.8L743.0,118.8L744.5,116.8L746.0,114.7L747.5,112.7L749.0,110.7L750.4,108.7L751.9,106.7L753.4,104.6L754.9,102.6L756.4,100.6L757.9,98.6L759.4,96.5L760.9,94.5L762.4,92.5L763.9,90.5L765.4,88.5L766.9,86.4L768.3,84.4L769.8,82.4L771.3,80.4L772.8,78.3L774.3,76.3L775.8,74.3L777.3,72.3L778.8,70.2L780.3,68.2L781.8,66.2L783.2,64.2L784.7,62.1L786.2,60.1L787.7,58.1L789.2,56.0L790.7,53.9L792.2,51.7L793.5,49.6L794.8,47.7L796.0,46.2L797.2,45.1L798.6,44.2L800.2,43.5L802.0,43.0L803.9,42.7L805.8,42.7L807.8,42.9L809.8,43.3L811.8,43.8L813.8,44.6L815.7,45.5L817.6,46.5L819.4,47.6L821.0,48.9L822.6,50.4L824.1,51.9L825.4,53.6L826.7,55.4L827.8,57.2L828.8,59.1L829.7,61.0L830.3,63.0L830.8,65.0L831.2,67.1L831.4,69.4L831.5,71.8L831.6,74.2L831.7,76.7L831.8,79.2L831.8,81.7L831.9,84.2L832.0,86.9L832.2,89.5L832.5,92.3L833.0,95.2L833.8,98.1L834.8,100.8L836.0,103.4L837.3,105.9L838.7,108.2L840.2,110.5L841.8,112.7L843.4,114.8L844.9,116.8L846.4,118.7L847.9,120.7L849.4,122.7L850.9,124.7L852.3,126.7L853.8,128.7L855.2,130.7L856.5,132.7L857.9,134.7L859.1,136.7L860.4,138.8L861.6,140.9L862.8,143.0L863.9,145.1L864.9,147.2L865.8,149.3L866.7,151.5L867.5,153.8L868.5,156.4L869.8,159.1L871.5,161.9L873.8,164.5L876.8,166.7L880.3,168.1L883.8,168.7L887.4,168.6L890.7,167.8L893.8,166.5L896.7,164.7L899.2,162.5L901.4,159.9L903.0,156.9L904.2,153.6L904.7,150.1L904.5,146.5L903.5,143.0L901.9,139.9L899.8,137.2L897.5,135.0L895.2,133.3L893.1,131.8L891.3,130.5L889.7,129.1L888.1,127.5L886.5,125.8L884.9,124.0L883.3,122.2L881.7,120.3L880.1,118.4L878.5,116.5L877.0,114.6L875.4,112.6L873.9,110.7L872.4,108.7L870.9,106.8L869.4,104.8L868.0,102.8L866.5,100.8L865.1,98.8L863.8,96.8L862.5,94.8L861.4,92.9L860.4,91.0L859.7,89.2L859.2,87.4L859.0,85.6L859.0,83.7L859.2,81.8L859.7,79.8L860.4,77.8L861.2,75.8L862.0,74.0L862.9,72.6L864.1,71.4L865.5,70.4L867.3,69.4L869.3,68.4L871.4,67.5L873.6,66.7L875.8,65.9L878.0,65.2L880.3,64.6L882.7,64.1L885.1,63.5L887.5,62.9L890.1,62.3L892.6,61.6L895.2,60.9L897.7,60.1L900.2,59.2L902.6,58.2L905.0,57.3L907.3,56.4L909.7,55.4L912.0,54.5L914.3,53.6L916.6,52.7L918.9,51.7L921.3,50.8L923.6,49.9L925.8,49.1L928.1,48.3L930.3,47.7L932.5,47.1L934.8,46.6L937.1,46.2L939.4,45.9L941.6,45.7L943.8,45.6L945.9,45.6L947.9,45.8L949.8,46.3L951.5,46.9L952.8,47.6L953.9,48.6L954.7,49.8L955.3,51.3L955.8,53.1L956.2,55.2L956.4,57.5L956.6,59.9L956.8,62.3L956.9,64.7L956.9,67.1L957.0,69.6L957.0,72.0L956.9,74.5L956.9,77.0L956.8,79.4L956.7,81.9L956.6,84.4L956.5,86.9L956.4,89.4L956.3,91.9L956.2,94.3L956.1,96.8L956.0,99.3L955.9,101.8L955.7,104.3L955.6,106.8L955.4,109.3L955.3,111.8L955.1,114.3L955.0,116.8L954.8,119.3L954.6,121.7L954.4,124.2L954.2,126.7L954.0,129.2L953.8,131.7L953.6,134.2L953.4,136.7L953.2,139.2L952.9,141.6L952.7,144.1L952.5,146.6L952.2,149.1L951.9,151.6L951.6,154.0L951.4,156.5L951.1,159.0L950.8,161.5L950.4,163.9L950.1,166.4L949.8,168.9L949.4,171.3L949.1,173.8L948.7,176.3L948.4,178.8L948.0,181.2L947.7,183.7L947.3,186.2L946.9,188.6L946.5,191.1L946.1,193.6L945.7,196.0L945.3,198.5L944.9,201.0L944.4,203.4L944.0,205.9L943.6,208.3L943.1,210.8L942.7,213.2L942.2,215.7L941.8,218.2L941.3,220.6L940.8,223.1L940.3,225.5L939.9,228.0L939.4,230.4L938.9,232.8L938.4,235.3L937.8,237.7L937.3,240.2L936.8,242.6L936.2,245.0L935.7,247.5L935.1,249.9L934.5,252.3L934.0,254.7L933.4,257.1L932.8,259.5L932.1,261.9L931.5,264.3L930.9,266.7L930.2,269.1L929.5,271.5L928.8,273.9L928.1,276.2L927.4,278.6L926.6,281.0L925.9,283.3L925.1,285.7L924.3,288.0L923.5,290.4L922.7,292.7L921.9,295.0L921.1,297.3L920.2,299.6L919.3,301.9L918.4,304.2L917.5,306.5L916.5,308.7L915.5,311.0L914.5,313.2L913.5,315.5L912.4,317.7L911.4,319.9L910.3,322.1L909.2,324.3L908.0,326.5L906.9,328.7L905.7,330.8L904.5,333.0L903.3,335.2L902.1,337.3L900.9,339.5L899.7,341.6L898.4,343.7L897.1,345.9L895.8,348.0L894.5,350.1L893.2,352.2L891.9,354.3L890.5,356.3L889.2,358.4L887.8,360.5L886.4,362.5L885.0,364.5L883.6,366.5L882.2,368.5L880.7,370.5L879.2,372.5L877.8,374.5L876.2,376.4L874.7,378.4L873.2,380.3L871.6,382.2L870.1,384.1L868.5,386.1L866.9,388.0L865.3,389.9L863.7,391.8L862.1,393.7L860.5,395.6L858.8,397.6L857.2,399.5L855.6,401.4L854.0,403.4L852.3,405.3L850.7,407.2L849.1,409.2L847.5,411.1L845.9,413.0L844.3,414.9L842.7,416.8L841.1,418.7L839.5,420.5L837.8,422.4L836.2,424.2L834.5,426.1L832.9,427.9L831.2,429.7L829.5,431.4L827.8,433.1L826.0,434.9L824.3,436.5L822.5,438.2L820.7,439.8L818.9,441.4L817.0,442.9L815.2,444.4L813.3,445.9L811.3,447.4L809.4,448.8L807.4,450.2L805.4,451.6L803.3,453.0L801.3,454.3L799.2,455.6L797.1,457.0L795.0,458.2L792.9,459.5L790.8,460.8L788.7,462.1L786.5,463.3L784.4,464.5L782.2,465.8L780.0,467.0L777.8,468.2L775.7,469.4L773.5,470.6L771.3,471.8L769.1,473.0L766.9,474.2L764.7,475.4L762.4,476.5L760.2,477.7L758.0,478.9L755.8,480.1L753.6,481.3L751.5,482.4L749.3,483.6L747.1,484.7L744.8,485.8L742.6,486.9L740.4,488.0L738.1,489.0L735.9,490.1L733.6,491.1L731.3,492.2L729.1,493.3L726.8,494.3L724.5,495.4L722.2,496.5L719.9,497.6L717.7,498.6L715.4,499.7L713.1,500.8L710.8,501.9L708.6,503.0L706.3,504.1L704.1,505.2L701.8,506.3L699.5,507.4L697.3,508.5L695.0,509.5L692.7,510.6L690.5,511.7L688.2,512.8L686.0,513.8L683.7,514.9L681.4,516.0L679.2,517.0L676.9,518.1L674.6,519.1L672.4,520.1L670.1,521.2L667.8,522.2L665.5,523.2L663.3,524.2L661.0,525.2L658.7,526.2L656.4,527.1L654.1,528.1L651.8,529.0L649.5,529.9L647.2,530.8L644.9,531.7L642.6,532.6L640.3,533.5L637.9,534.3L635.6,535.2L633.3,536.0L630.9,536.8L628.6,537.6L626.2,538.4L623.9,539.2L621.5,540.0L619.2,540.7L616.8,541.4L614.4,542.2L612.0,542.9L609.7,543.6L607.3,544.3L604.9,544.9L602.5,545.6L600.1,546.3L597.7,546.9L595.3,547.5L592.9,548.2L590.5,548.8L588.1,549.4L585.6,550.0L583.2,550.6L580.8,551.2L578.4,551.8L575.9,552.3L573.5,552.9L571.1,553.5L568.6,554.0L566.2,554.6L563.8,555.1L561.3,555.6L558.9,556.2L556.4,556.7L554.0,557.2L551.6,557.7L549.1,558.2L546.7,558.7L544.2,559.2L541.8,559.7L539.3,560.2L536.9,560.7L534.5,561.1L532.0,561.5L529.6,562.0L527.2,562.4L524.7,562.8L522.3,563.2L519.8,563.5L517.3,563.9L514.9,564.2L512.4,564.6L509.9,564.9L507.4,565.3L504.9,565.6L502.4,566.0L499.9,566.4L497.4,566.7L494.9,567.1L492.5,567.5L490.0,567.8L487.6,568.2L485.2,568.5L482.7,568.7L480.1,569.1L477.4,569.4L474.5,570.0L471.4,570.9L468.2,572.3L465.0,574.7L462.4,577.7L460.7,581.1L459.7,584.5L459.3,587.5L459.0,590.0L458.8,592.3L458.4,594.4L457.9,596.3L457.3,598.0L456.8,599.3L456.1,600.0L455.2,600.7L453.7,601.3L451.6,602.0L449.3,602.6L446.9,603.3L444.6,603.9L442.5,604.4L440.6,604.7L438.9,604.8L437.3,604.6L435.8,604.1L434.1,603.2L432.2,602.0L430.1,600.7L427.7,599.2L425.0,597.8L421.9,596.7L418.7,596.0L415.7,595.8L412.9,595.8L410.2,596.0L407.6,596.1L405.0,596.3L402.5,596.6L399.9,596.9L397.4,597.1L394.9,597.4L392.4,597.7L389.9,598.0L387.4,598.3L384.9,598.6L382.4,599.0L379.9,599.3L377.4,599.6L374.9,599.9L372.4,600.3L369.9,600.6L367.4,601.0L364.9,601.3L362.4,601.6L359.9,602.0L357.4,602.3L354.9,602.7L352.4,603.0L349.9,603.4L347.4,603.7L345.0,604.1L342.5,604.4L340.0,604.8L337.5,605.2L335.0,605.5L332.5,605.9L330.0,606.2L327.5,606.6L325.1,606.9L322.6,607.3L320.1,607.7L317.6,608.0L315.1,608.4L312.6,608.7L310.1,609.1L307.7,609.4L305.2,609.8L302.7,610.2L300.2,610.5L297.7,610.9L295.2,611.2L292.7,611.6L290.3,611.9L287.8,612.3L285.3,612.6L282.8,613.0L280.3,613.3L277.8,613.7L275.3,614.0L272.8,614.4L270.4,614.7L267.9,615.1L265.4,615.4L262.9,615.8L260.4,616.1L257.9,616.5L255.4,616.8L252.9,617.2L250.4,617.6L248.0,617.9L245.5,618.3L243.0,618.7L240.5,619.0L238.0,619.4L235.5,619.8L233.0,620.2L230.5,620.5L228.1,620.9L225.6,621.3L223.1,621.7L220.6,622.0L218.1,622.4L215.6,622.8L213.1,623.2L210.7,623.6L208.2,624.0L205.7,624.4L203.2,624.7L200.7,625.1L198.2,625.5L195.8,625.9L193.3,626.3L190.8,626.7L188.3,627.1L185.8,627.5L183.3,627.9L180.9,628.3L178.4,628.7L175.9,629.1L173.4,629.5L171.0,629.9L168.5,630.2L166.0,630.6L163.5,631.0L161.1,631.4L158.6,631.7L156.1,632.1L153.7,632.4L151.2,632.8L148.6,633.1L145.8,633.6L142.7,634.5L139.7,635.9L137.0,637.8L134.8,639.9L132.9,642.2L131.2,644.4L129.7,646.7L128.3,649.0L127.1,651.4L125.9,653.7L124.7,656.0L123.6,658.3L122.5,660.6L121.5,662.9L120.4,665.2L119.3,667.4L118.3,669.7L117.2,672.0L116.1,674.3L115.1,676.6L114.0,678.9L113.0,681.2L111.9,683.5L110.9,685.9L110.0,688.2L109.0,690.6L108.0,693.0L107.1,695.3L106.2,697.7L105.3,700.1L104.4,702.5L103.6,704.9L102.7,707.3L101.9,709.8L101.1,712.3L100.4,714.8L99.7,717.3L99.1,719.8L98.5,722.3L98.0,724.9L97.5,727.4L97.0,729.9L96.6,732.4L96.2,734.9L95.8,737.4L95.4,739.9L95.0,742.5L94.6,745.0L94.3,747.5L94.0,750.1L93.7,752.6L93.4,755.2L93.2,757.8L93.0,760.3L92.9,762.9L92.8,765.5L92.7,768.0L92.6,770.6L92.6,773.1L92.5,775.6L92.5,778.2L92.5,780.7L92.5,783.2L92.5,785.8L92.5,788.3L92.5,790.8L92.5,793.3L92.6,795.8L92.6,798.4L92.6,800.9L92.7,803.4L92.7,805.9L92.7,808.4L92.8,810.9L92.8,813.5L93.0,816.3L93.3,819.2L94.0,822.1L94.9,824.9L96.1,827.7L97.6,830.2L99.2,832.6L101.0,834.8L103.0,836.9L105.0,838.8L107.0,840.6L109.1,842.2L111.3,843.8L113.4,845.3L115.5,846.7L117.5,848.1L119.4,849.6L121.4,851.0L123.3,852.5L125.1,854.0L126.9,855.6L128.5,857.1L129.9,858.7L131.1,860.3L132.2,862.1L133.1,863.9L133.9,865.9L134.5,868.0L135.0,870.1L135.3,872.4L135.6,874.7L135.8,877.2L136.1,879.8L136.4,882.3L136.8,884.9L137.2,887.4L137.6,889.9L138.0,892.4L138.4,894.9L138.8,897.4L139.2,899.8L139.6,902.3L140.0,904.8L140.4,907.3L140.8,909.8L141.2,912.3L141.6,914.7L142.0,917.2L142.5,919.7L142.9,922.2L143.3,924.6L143.7,927.1L144.1,929.6L144.6,932.1L145.0,934.6L145.4,937.0L145.9,939.5L146.3,942.0L146.7,944.5L147.2,947.0L147.6,949.4L148.0,951.9L148.5,954.4L148.9,956.9L149.4,959.3L149.8,961.8L150.3,964.3L150.7,966.8L151.2,969.2L151.6,971.7L152.1,974.2L152.6,976.7L153.1,979.2L153.6,981.7L154.1,984.2L154.6,986.7L155.2,989.2L155.8,991.7L156.4,994.1L157.1,996.6L157.7,999.0L158.4,1001.5L159.0,1003.8L159.5,1006.0L159.9,1008.1L160.0,1010.1L159.9,1011.9L159.6,1013.5L158.9,1014.9L157.9,1016.4L156.6,1017.8L155.0,1019.2L153.3,1020.5L151.4,1021.8L149.5,1023.0L147.5,1024.1L145.4,1025.1L143.0,1026.2L140.3,1027.7L137.6,1029.8L135.3,1032.7L133.8,1036.0L133.2,1039.3L133.0,1042.4L133.1,1045.3L133.4,1048.1L133.8,1050.8L134.4,1053.4L135.0,1055.9L135.6,1058.5L136.3,1061.0L137.1,1063.5L137.9,1065.9L138.7,1068.4L139.5,1070.8L140.4,1073.2L141.2,1075.6L142.1,1078.0L143.0,1080.3L143.8,1082.7L144.7,1085.0L145.6,1087.4L146.5,1089.8L147.4,1092.1L148.3,1094.5L149.3,1096.8L150.2,1099.2L151.2,1101.6L152.1,1103.9L153.1,1106.3L154.1,1108.6L155.2,1110.9L156.2,1113.3L157.3,1115.6L158.4,1117.9L159.6,1120.2L160.7,1122.5L161.9,1124.8L163.1,1127.0L164.4,1129.3L165.7,1131.5L167.0,1133.7L168.3,1135.9L169.7,1138.1L171.1,1140.2L172.4,1142.4L173.8,1144.5L175.3,1146.6L176.7,1148.8L178.2,1150.9L179.7,1152.9L181.2,1155.0L182.8,1157.1L184.4,1159.1L186.0,1161.1L187.7,1163.1L189.4,1165.0L191.1,1167.0L192.8,1168.9L194.5,1170.8L196.3,1172.6L198.1,1174.5L199.9,1176.3L201.8,1178.1L203.7,1179.9L205.7,1181.7L207.7,1183.4L209.8,1185.0L212.0,1186.6L214.2,1188.1L216.5,1189.6L218.8,1190.9L221.1,1192.1L223.4,1193.3L225.7,1194.4L227.9,1195.6L230.2,1196.7L232.5,1197.8L234.8,1198.9L237.1,1200.0L239.4,1201.0L241.7,1202.1L244.1,1203.1L246.4,1204.2L248.7,1205.1L251.0,1206.1L252.9,1207.0L254.6,1208.0L256.0,1209.1L257.2,1210.5L258.3,1212.0L259.3,1213.8L260.3,1215.8L261.1,1217.9L261.8,1220.0L262.4,1222.0L262.7,1224.0L262.8,1225.8L262.6,1227.5L262.2,1228.9L261.5,1230.2L260.5,1231.3L259.2,1232.3L257.5,1233.2L255.6,1234.1L253.4,1234.9L251.2,1235.7L248.9,1236.4L246.6,1237.1L244.2,1237.8L241.9,1238.4L239.5,1239.0L237.1,1239.6L234.7,1240.2L232.2,1240.8L229.8,1241.3L227.4,1241.9L225.0,1242.4L222.5,1242.9L220.1,1243.5L217.7,1244.0L215.2,1244.4L212.8,1244.9L210.4,1245.3L208.0,1245.7L205.6,1246.1L203.2,1246.4L200.8,1246.7L198.4,1246.9L196.0,1247.1L193.6,1247.3L191.2,1247.3L188.9,1247.4L186.5,1247.3L184.1,1247.2L181.7,1247.0L179.5,1246.8L177.4,1246.5L175.5,1246.0L173.8,1245.3L172.2,1244.4L170.5,1243.1L168.8,1241.7L167.2,1240.3L166.0,1239.0L165.2,1237.8L164.8,1236.6L164.7,1234.9L164.7,1232.7L164.6,1230.1L164.5,1227.2L164.1,1224.4L163.6,1221.7L163.0,1219.1L162.4,1216.6L161.8,1214.0L161.0,1211.3L159.9,1208.6L158.7,1205.9L157.2,1203.4L155.6,1201.0L154.0,1198.8L152.3,1196.8L150.6,1194.8L148.9,1192.8L147.2,1190.9L145.6,1189.1L144.0,1187.2L142.4,1185.3L140.8,1183.5L139.3,1181.6L137.9,1179.7L136.5,1177.8L135.1,1175.8L133.8,1173.8L132.5,1171.8L131.2,1169.7L129.9,1167.6L128.7,1165.4L127.4,1163.3L126.1,1161.1L124.8,1158.9L123.4,1156.7L122.1,1154.5L120.6,1152.4L119.2,1150.2L117.7,1148.1L116.3,1146.1L114.9,1144.1L113.6,1142.1L112.4,1140.1L111.3,1138.1L110.2,1136.0L109.2,1133.9L108.2,1131.8L107.3,1129.6L106.4,1127.3L105.6,1125.0L104.7,1122.8L103.9,1120.4L103.1,1118.1L102.4,1115.7L101.6,1113.4L100.8,1111.0L100.1,1108.6L99.3,1106.2L98.5,1103.8L97.8,1101.4L97.0,1099.1L96.3,1096.7L95.5,1094.3L94.8,1091.9L94.1,1089.5L93.4,1087.1L92.6,1084.7L91.9,1082.3L91.2,1079.9L90.5,1077.5L89.8,1075.1L89.1,1072.7L88.4,1070.3L87.7,1067.9L87.0,1065.5L86.3,1063.1L85.6,1060.7L84.9,1058.3L84.3,1055.9L83.6,1053.5L82.9,1051.0L82.2,1048.6L81.5,1046.2L80.9,1043.8L80.2,1041.4L79.5,1039.0L78.8,1036.6L78.2,1034.1L77.5,1031.7L76.8,1029.3L76.2,1026.9L75.5,1024.5L74.8,1022.1L74.2,1019.6L73.5,1017.2L72.9,1014.8L72.2,1012.4L71.6,1010.0L70.9,1007.5L70.3,1005.1L69.6,1002.7L69.0,1000.3L68.3,997.9L67.7,995.4L67.1,993.0L66.5,990.6L65.8,988.2L65.2,985.8L64.7,983.4L64.1,981.0L63.6,978.6L63.0,976.2L62.5,973.8L62.1,971.4L61.6,969.0L61.2,966.5L60.7,964.1L60.3,961.7L59.9,959.2L59.5,956.8L59.2,954.3L58.8,951.8L58.4,949.4L58.1,946.9L57.7,944.4L57.3,941.9L57.0,939.4L56.6,936.9Z" fill="none" stroke="#888" stroke-width="1.5"/>
  <path d="M50.0,935.4L49.6,932.9L49.2,930.4L48.8,927.9L48.5,925.4L48.1,923.0L47.7,920.5L47.3,918.0L47.0,915.5L46.6,913.0L46.2,910.5L45.9,908.1L45.5,905.6L45.2,903.1L44.9,900.6L44.5,898.1L44.2,895.6L43.9,893.1L43.6,890.6L43.4,888.1L43.1,885.6L42.8,883.1L42.5,880.6L42.3,878.1L42.0,875.6L41.7,873.1L41.5,870.6L41.2,868.1L41.0,865.6L40.8,863.1L40.5,860.6L40.3,858.1L40.1,855.6L39.9,853.1L39.7,850.6L39.5,848.1L39.3,845.6L39.1,843.1L38.9,840.6L38.7,838.1L38.6,835.6L38.4,833.1L38.3,830.6L38.2,828.1L38.0,825.6L37.9,823.1L37.9,820.5L37.8,818.0L37.7,815.5L37.7,813.0L37.7,810.5L37.7,808.0L37.7,805.5L37.7,803.0L37.7,800.4L37.7,797.9L37.8,795.4L37.8,792.9L37.9,790.4L38.0,787.9L38.0,785.4L38.1,782.9L38.2,780.4L38.3,777.8L38.4,775.3L38.5,772.8L38.6,770.3L38.8,767.8L38.9,765.3L39.1,762.8L39.3,760.3L39.4,757.8L39.6,755.3L39.8,752.8L40.0,750.3L40.2,747.8L40.4,745.3L40.6,742.8L40.8,740.3L41.0,737.8L41.3,735.3L41.5,732.8L41.8,730.3L42.1,727.8L42.4,725.3L42.8,722.8L43.2,720.3L43.6,717.8L44.1,715.4L44.7,712.9L45.3,710.5L46.0,708.1L46.6,705.7L47.3,703.2L48.1,700.8L48.8,698.4L49.5,696.0L50.3,693.6L51.1,691.3L51.9,688.9L52.7,686.5L53.6,684.1L54.4,681.8L55.2,679.4L56.0,677.0L56.8,674.6L57.5,672.2L58.2,669.8L58.8,667.4L59.5,664.9L60.0,662.5L60.5,660.0L61.0,657.6L61.4,655.1L61.6,652.6L61.8,650.1L61.8,647.6L61.8,645.1L61.6,642.5L61.5,640.0L61.3,637.5L61.1,635.0L61.0,632.5L60.8,630.0L60.7,627.5L60.9,625.0L61.4,622.5L62.3,620.2L63.7,618.1L65.5,616.4L67.6,615.1L69.9,614.0L72.2,613.1L74.6,612.3L77.0,611.5L79.4,610.8L81.8,610.2L84.2,609.6L86.7,609.0L89.2,608.5L91.6,608.1L94.1,607.7L96.6,607.4L99.1,607.2L101.6,607.1L104.1,607.1L106.6,607.0L109.2,606.9L111.7,606.8L114.2,606.7L116.7,606.4L119.2,606.2L121.7,605.9L124.2,605.6L126.7,605.3L129.1,604.9L131.6,604.6L134.1,604.3L136.6,604.0L139.1,603.6L141.6,603.3L144.1,603.0L146.6,602.7L149.1,602.4L151.6,602.1L154.1,601.8L156.6,601.5L159.1,601.2L161.6,600.9L164.0,600.6L166.5,600.3L169.0,600.0L171.5,599.6L174.0,599.3L176.5,598.9L179.0,598.6L181.5,598.2L183.9,597.8L186.4,597.4L188.9,597.1L191.4,596.7L193.9,596.2L196.3,595.8L198.8,595.3L201.3,594.8L203.7,594.3L206.2,593.8L208.6,593.2L211.1,592.6L213.5,592.0L215.9,591.4L218.4,590.8L220.8,590.1L223.2,589.4L225.6,588.7L228.0,588.0L230.5,587.4L232.9,586.6L235.3,585.9L237.7,585.2L240.1,584.5L242.5,583.8L244.9,583.1L247.3,582.3L249.7,581.6L252.1,580.9L254.5,580.1L256.9,579.4L259.3,578.7L261.7,577.9L264.1,577.2L266.5,576.4L268.9,575.7L271.3,575.0L273.7,574.3L276.1,573.5L278.5,572.8L281.0,572.1L283.4,571.4L285.8,570.7L288.2,570.0L290.6,569.3L293.0,568.6L295.4,567.9L297.8,567.2L300.3,566.5L302.7,565.8L305.1,565.1L307.5,564.4L309.9,563.7L312.3,563.0L314.7,562.3L317.2,561.7L319.6,561.0L322.0,560.3L324.4,559.7L326.9,559.1L329.3,558.5L331.7,557.9L334.2,557.3L336.6,556.8L339.1,556.3L341.6,555.8L344.0,555.3L346.5,554.8L349.0,554.4L351.4,553.9L353.9,553.5L356.4,553.1L358.9,552.7L361.4,552.3L363.8,552.0L366.3,551.6L368.8,551.3L371.3,550.9L373.8,550.6L376.3,550.3L378.8,550.0L381.3,549.7L383.8,549.5L386.3,549.4L388.8,549.2L391.3,549.1L393.8,549.0L396.3,548.9L398.8,548.7L401.3,548.5L403.8,548.2L406.3,547.8L408.8,547.3L411.2,546.7L413.6,546.0L416.0,545.2L418.4,544.3L420.7,543.4L423.0,542.5L425.4,541.5L427.7,540.6L430.0,539.6L432.3,538.6L434.6,537.6L436.9,536.6L439.2,535.5L441.5,534.5L443.8,533.4L446.0,532.4L448.3,531.3L450.6,530.2L452.8,529.1L455.1,528.0L457.4,526.9L459.6,525.8L461.9,524.7L464.1,523.6L466.4,522.5L468.7,521.4L470.9,520.3L473.2,519.3L475.4,518.2L477.7,517.1L480.0,516.0L482.2,514.9L484.5,513.8L486.8,512.8L489.0,511.7L491.3,510.6L493.6,509.6L495.9,508.6L498.2,507.6L500.5,506.5L502.8,505.5L505.1,504.5L507.4,503.5L509.7,502.5L512.0,501.5L514.3,500.6L516.7,499.7L519.1,498.8L521.4,498.0L523.8,497.3L526.2,496.5L528.6,495.8L531.1,495.2L533.5,494.5L535.9,493.9L538.4,493.4L540.8,492.8L543.3,492.3L545.7,491.7L548.2,491.2L550.7,490.7L553.1,490.2L555.6,489.8L558.1,489.3L560.5,488.8L563.0,488.4L565.5,487.9L567.9,487.5L570.4,487.1L572.9,486.7L575.4,486.4L577.9,486.0L580.4,485.7L582.9,485.4L585.4,485.1L587.8,484.7L590.3,484.4L592.8,484.1L595.3,483.8L597.8,483.4L600.3,483.1L602.8,482.7L605.3,482.3L607.7,482.0L610.2,481.6L612.7,481.3L615.2,480.9L617.7,480.5L620.2,480.1L622.6,479.7L625.1,479.3L627.6,478.8L630.0,478.3L632.5,477.7L634.9,477.1L637.4,476.5L639.8,475.8L642.2,475.0L644.5,474.2L646.9,473.3L649.2,472.3L651.5,471.3L653.8,470.2L656.0,469.1L658.2,467.9L660.4,466.7L662.6,465.4L664.7,464.1L666.8,462.7L668.9,461.3L671.0,459.8L673.0,458.3L674.9,456.8L676.9,455.2L678.8,453.5L680.6,451.8L682.4,450.1L684.2,448.3L685.9,446.5L687.6,444.7L689.3,442.8L691.0,440.9L692.6,439.0L694.2,437.0L695.7,435.0L697.2,433.1L698.7,431.0L700.2,429.0L701.5,426.9L702.8,424.7L704.1,422.5L705.2,420.3L706.2,418.0L707.2,415.7L708.0,413.3L708.7,410.9L709.4,408.5L709.9,406.0L710.3,403.5L710.7,401.0L710.9,398.5L710.9,396.0L710.9,393.5L710.8,391.0L710.6,388.5L710.3,386.0L710.1,383.5L709.8,381.0L709.4,378.5L709.1,376.0L708.7,373.6L708.2,371.1L707.7,368.6L707.1,366.2L706.5,363.8L705.8,361.3L705.0,358.9L704.2,356.6L703.3,354.2L702.5,351.9L701.5,349.5L700.6,347.2L699.6,344.9L698.6,342.6L697.7,340.2L696.7,337.9L695.7,335.6L694.6,333.4L693.4,331.2L692.0,329.0L690.6,327.0L688.9,325.1L687.1,323.4L685.1,321.8L683.1,320.3L681.0,318.9L679.0,317.5L677.0,316.0L675.0,314.4L673.1,312.8L671.2,311.1L669.4,309.4L667.6,307.6L665.8,305.9L663.9,304.2L662.1,302.5L660.2,300.8L658.3,299.1L656.4,297.5L654.6,295.8L652.7,294.1L650.9,292.4L649.2,290.5L647.7,288.5L646.4,286.3L645.2,284.1L644.2,281.8L643.2,279.5L642.3,277.2L641.5,274.8L640.9,272.4L640.3,269.9L639.9,267.4L639.7,264.9L639.6,262.4L639.9,259.9L640.3,257.5L641.0,255.0L641.8,252.6L642.6,250.3L643.6,248.0L644.6,245.6L645.6,243.4L646.7,241.1L647.9,238.9L649.0,236.7L650.3,234.5L651.5,232.3L652.8,230.2L654.2,228.1L655.6,226.0L657.1,223.9L658.6,221.9L660.1,219.9L661.7,218.0L663.3,216.0L664.9,214.1L666.5,212.1L668.0,210.2L669.6,208.2L671.2,206.3L672.8,204.3L674.3,202.4L675.9,200.4L677.4,198.4L679.0,196.4L680.5,194.4L682.0,192.4L683.5,190.4L685.0,188.4L686.6,186.4L688.1,184.4L689.6,182.4L691.1,180.4L692.6,178.4L694.1,176.3L695.6,174.3L697.1,172.3L698.6,170.3L700.1,168.3L701.6,166.3L703.1,164.3L704.6,162.3L706.1,160.2L707.6,158.2L709.1,156.2L710.6,154.2L712.1,152.2L713.6,150.2L715.1,148.1L716.6,146.1L718.1,144.1L719.6,142.1L721.1,140.1L722.6,138.1L724.1,136.0L725.6,134.0L727.1,132.0L728.6,130.0L730.1,128.0L731.5,125.9L733.0,123.9L734.5,121.9L736.0,119.9L737.5,117.9L739.0,115.8L740.5,113.8L742.0,111.8L743.5,109.8L745.0,107.8L746.5,105.7L748.0,103.7L749.5,101.7L750.9,99.7L752.4,97.6L753.9,95.6L755.4,93.6L756.9,91.6L758.4,89.6L759.9,87.5L761.4,85.5L762.9,83.5L764.3,81.5L765.8,79.4L767.3,77.4L768.8,75.4L770.3,73.4L771.8,71.3L773.3,69.3L774.8,67.3L776.2,65.3L777.7,63.2L779.2,61.2L780.7,59.2L782.2,57.2L783.7,55.1L785.1,53.1L786.6,51.1L788.0,49.0L789.4,46.9L790.8,44.8L792.3,42.8L794.2,41.1L796.3,39.7L798.6,38.7L801.0,38.1L803.5,37.7L806.0,37.7L808.5,37.9L810.9,38.4L813.4,39.1L815.7,39.9L818.0,41.0L820.2,42.2L822.3,43.5L824.3,45.1L826.1,46.7L827.9,48.6L829.5,50.5L830.9,52.6L832.3,54.7L833.4,56.9L834.4,59.2L835.2,61.6L835.8,64.0L836.2,66.5L836.5,69.0L836.6,71.5L836.7,74.0L836.8,76.5L836.9,79.0L837.0,81.5L837.0,84.1L837.1,86.6L837.3,89.1L837.6,91.6L838.0,94.0L838.7,96.5L839.6,98.8L840.6,101.1L841.8,103.3L843.1,105.5L844.5,107.6L845.9,109.6L847.5,111.6L849.0,113.6L850.6,115.5L852.1,117.5L853.6,119.5L855.1,121.6L856.6,123.6L858.0,125.6L859.5,127.7L860.9,129.8L862.3,131.9L863.6,134.0L864.9,136.2L866.2,138.3L867.4,140.5L868.5,142.7L869.7,145.0L870.7,147.3L871.6,149.6L872.5,152.0L873.4,154.3L874.4,156.6L875.7,158.7L877.4,160.6L879.4,162.1L881.7,163.0L884.2,163.4L886.7,163.3L889.1,162.8L891.4,161.8L893.5,160.5L895.4,158.8L897.0,156.9L898.2,154.7L899.0,152.3L899.4,149.9L899.3,147.4L898.6,145.0L897.5,142.7L895.9,140.8L894.1,139.0L892.1,137.5L890.0,136.1L888.0,134.6L886.1,132.9L884.3,131.2L882.6,129.4L880.9,127.5L879.3,125.6L877.7,123.7L876.1,121.7L874.5,119.8L872.9,117.8L871.3,115.9L869.8,113.9L868.3,111.9L866.7,109.9L865.2,107.9L863.8,105.8L862.3,103.8L860.8,101.7L859.4,99.7L858.1,97.5L856.8,95.4L855.7,93.1L854.8,90.8L854.2,88.4L853.9,85.9L853.9,83.4L854.2,80.9L854.7,78.4L855.5,76.0L856.5,73.7L857.6,71.4L859.0,69.4L860.7,67.6L862.7,66.1L864.9,64.8L867.2,63.8L869.5,62.8L871.8,61.9L874.2,61.1L876.6,60.3L879.0,59.7L881.5,59.1L883.9,58.5L886.4,58.0L888.8,57.4L891.3,56.8L893.7,56.0L896.1,55.3L898.4,54.4L900.8,53.5L903.1,52.6L905.4,51.7L907.8,50.7L910.1,49.8L912.4,48.9L914.8,48.0L917.1,47.0L919.5,46.1L921.8,45.2L924.2,44.4L926.5,43.5L928.9,42.8L931.4,42.2L933.8,41.7L936.3,41.2L938.8,40.9L941.3,40.6L943.8,40.5L946.3,40.6L948.8,40.9L951.2,41.5L953.6,42.3L955.8,43.6L957.6,45.2L959.1,47.3L960.1,49.6L960.8,52.0L961.2,54.4L961.5,56.9L961.8,59.4L962.0,61.9L962.1,64.4L962.2,67.0L962.3,69.5L962.3,72.0L962.3,74.5L962.3,77.0L962.3,79.5L962.3,82.0L962.2,84.5L962.1,87.0L962.0,89.6L962.0,92.1L961.9,94.6L961.7,97.1L961.6,99.6L961.5,102.1L961.4,104.6L961.2,107.1L961.1,109.6L960.9,112.1L960.8,114.6L960.6,117.1L960.4,119.7L960.2,122.2L960.1,124.7L959.9,127.2L959.7,129.7L959.5,132.2L959.3,134.7L959.0,137.2L958.8,139.7L958.6,142.2L958.3,144.7L958.1,147.2L957.8,149.7L957.5,152.2L957.3,154.7L957.0,157.2L956.7,159.7L956.4,162.2L956.0,164.6L955.7,167.1L955.4,169.6L955.0,172.1L954.7,174.6L954.3,177.1L954.0,179.6L953.6,182.1L953.2,184.5L952.9,187.0L952.5,189.5L952.1,192.0L951.7,194.5L951.3,196.9L950.8,199.4L950.4,201.9L950.0,204.4L949.6,206.9L949.1,209.3L948.7,211.8L948.2,214.3L947.8,216.7L947.3,219.2L946.8,221.7L946.4,224.1L945.9,226.6L945.4,229.1L944.9,231.5L944.4,234.0L943.9,236.5L943.4,238.9L942.8,241.4L942.3,243.8L941.7,246.3L941.2,248.7L940.6,251.2L940.0,253.6L939.5,256.1L938.8,258.5L938.2,260.9L937.6,263.4L937.0,265.8L936.3,268.2L935.6,270.6L934.9,273.0L934.2,275.5L933.5,277.9L932.8,280.3L932.0,282.7L931.3,285.1L930.5,287.4L929.7,289.8L928.9,292.2L928.1,294.6L927.2,296.9L926.4,299.3L925.5,301.6L924.6,304.0L923.6,306.3L922.7,308.6L921.7,311.0L920.7,313.3L919.7,315.6L918.6,317.8L917.5,320.1L916.4,322.4L915.3,324.6L914.2,326.9L913.0,329.1L911.9,331.3L910.7,333.5L909.5,335.7L908.3,337.9L907.0,340.1L905.8,342.3L904.5,344.5L903.3,346.6L902.0,348.8L900.7,350.9L899.3,353.1L898.0,355.2L896.6,357.3L895.3,359.4L893.9,361.5L892.5,363.6L891.1,365.7L889.7,367.8L888.2,369.8L886.7,371.8L885.3,373.9L883.8,375.9L882.2,377.9L880.7,379.9L879.2,381.9L877.6,383.8L876.0,385.8L874.4,387.7L872.8,389.7L871.2,391.6L869.6,393.5L868.0,395.5L866.4,397.4L864.8,399.3L863.1,401.2L861.5,403.1L859.9,405.0L858.3,407.0L856.7,408.9L855.1,410.8L853.5,412.8L851.9,414.7L850.3,416.6L848.6,418.5L847.0,420.5L845.4,422.4L843.7,424.3L842.1,426.2L840.4,428.0L838.7,429.9L837.0,431.7L835.3,433.6L833.5,435.4L831.8,437.1L830.0,438.9L828.2,440.6L826.3,442.4L824.5,444.0L822.6,445.7L820.6,447.3L818.7,448.9L816.7,450.4L814.7,451.9L812.7,453.4L810.6,454.9L808.5,456.3L806.5,457.7L804.4,459.1L802.2,460.4L800.1,461.7L798.0,463.1L795.8,464.4L793.7,465.7L791.5,466.9L789.3,468.2L787.2,469.4L785.0,470.7L782.8,471.9L780.6,473.1L778.4,474.3L776.2,475.5L774.0,476.7L771.8,477.9L769.6,479.1L767.3,480.3L765.1,481.5L762.9,482.7L760.7,483.9L758.5,485.1L756.3,486.3L754.1,487.5L751.8,488.6L749.6,489.7L747.3,490.9L745.1,492.0L742.8,493.0L740.6,494.1L738.3,495.2L736.0,496.3L733.7,497.3L731.4,498.4L729.2,499.4L726.9,500.5L724.6,501.6L722.4,502.7L720.1,503.7L717.8,504.8L715.6,505.9L713.3,507.0L711.0,508.1L708.8,509.2L706.5,510.3L704.3,511.4L702.0,512.5L699.7,513.6L697.5,514.7L695.2,515.7L692.9,516.8L690.7,517.9L688.4,519.0L686.1,520.1L683.9,521.1L681.6,522.2L679.3,523.3L677.0,524.3L674.7,525.4L672.5,526.4L670.2,527.4L667.9,528.5L665.6,529.5L663.3,530.5L661.0,531.5L658.7,532.4L656.3,533.4L654.0,534.4L651.7,535.3L649.3,536.2L647.0,537.1L644.7,538.0L642.3,538.9L640.0,539.8L637.6,540.7L635.2,541.5L632.9,542.4L630.5,543.2L628.1,544.0L625.7,544.8L623.3,545.6L621.0,546.3L618.6,547.1L616.2,547.8L613.7,548.5L611.3,549.3L608.9,550.0L606.5,550.7L604.1,551.4L601.7,552.0L599.3,552.7L596.8,553.3L594.4,554.0L592.0,554.6L589.5,555.2L587.1,555.8L584.7,556.4L582.2,557.0L579.8,557.6L577.3,558.2L574.9,558.8L572.5,559.4L570.0,559.9L567.6,560.5L565.1,561.0L562.7,561.6L560.2,562.1L557.7,562.7L555.3,563.2L552.8,563.7L550.4,564.2L547.9,564.7L545.5,565.3L543.0,565.7L540.5,566.2L538.1,566.7L535.6,567.2L533.1,567.6L530.7,568.1L528.2,568.5L525.7,568.9L523.2,569.3L520.7,569.7L518.2,570.0L515.8,570.4L513.3,570.8L510.8,571.1L508.3,571.5L505.8,571.8L503.3,572.2L500.8,572.5L498.4,572.9L495.9,573.3L493.4,573.7L490.9,574.0L488.4,574.4L485.9,574.7L483.4,575.0L480.9,575.3L478.5,575.6L476.0,576.1L473.6,576.8L471.3,577.8L469.3,579.3L467.6,581.2L466.5,583.4L465.8,585.8L465.5,588.3L465.2,590.8L464.9,593.3L464.4,595.7L463.7,598.2L462.9,600.5L461.7,602.7L460.0,604.6L457.9,606.0L455.6,606.9L453.2,607.6L450.8,608.2L448.3,608.9L445.9,609.5L443.4,610.0L440.9,610.3L438.4,610.3L436.0,609.9L433.6,609.1L431.4,607.9L429.2,606.6L427.2,605.2L425.0,603.8L422.8,602.7L420.5,601.8L418.0,601.3L415.5,601.1L413.0,601.1L410.5,601.2L408.0,601.4L405.5,601.6L403.0,601.8L400.5,602.1L398.0,602.3L395.5,602.6L393.0,602.9L390.5,603.2L388.0,603.5L385.5,603.8L383.0,604.1L380.5,604.4L378.0,604.8L375.5,605.1L373.0,605.4L370.6,605.7L368.1,606.1L365.6,606.4L363.1,606.7L360.6,607.1L358.1,607.4L355.6,607.8L353.1,608.1L350.6,608.5L348.2,608.8L345.7,609.2L343.2,609.5L340.7,609.9L338.2,610.2L335.7,610.6L333.2,610.9L330.7,611.3L328.3,611.6L325.8,612.0L323.3,612.3L320.8,612.7L318.3,613.0L315.8,613.4L313.3,613.7L310.8,614.1L308.4,614.4L305.9,614.8L303.4,615.1L300.9,615.5L298.4,615.8L295.9,616.2L293.4,616.5L290.9,616.9L288.5,617.2L286.0,617.6L283.5,617.9L281.0,618.3L278.5,618.6L276.0,618.9L273.5,619.3L271.0,619.6L268.6,620.0L266.1,620.3L263.6,620.7L261.1,621.1L258.6,621.4L256.1,621.8L253.6,622.1L251.2,622.5L248.7,622.8L246.2,623.2L243.7,623.6L241.2,623.9L238.7,624.3L236.2,624.7L233.8,625.0L231.3,625.4L228.8,625.8L226.3,626.1L223.8,626.5L221.3,626.9L218.9,627.3L216.4,627.7L213.9,628.0L211.4,628.4L208.9,628.8L206.4,629.2L204.0,629.6L201.5,630.0L199.0,630.4L196.5,630.8L194.0,631.2L191.6,631.5L189.1,631.9L186.6,632.3L184.1,632.7L181.6,633.1L179.1,633.5L176.7,633.9L174.2,634.3L171.7,634.7L169.2,635.0L166.7,635.4L164.3,635.8L161.8,636.2L159.3,636.5L156.8,636.9L154.3,637.2L151.8,637.6L149.3,637.9L146.9,638.3L144.4,639.0L142.2,640.1L140.1,641.5L138.3,643.3L136.7,645.2L135.2,647.2L133.8,649.3L132.5,651.4L131.3,653.6L130.2,655.9L129.0,658.1L128.0,660.4L126.9,662.7L125.8,664.9L124.8,667.2L123.7,669.5L122.6,671.8L121.5,674.0L120.5,676.3L119.4,678.6L118.4,680.9L117.4,683.2L116.4,685.5L115.4,687.8L114.4,690.1L113.4,692.4L112.5,694.7L111.6,697.1L110.7,699.4L109.8,701.8L108.9,704.1L108.1,706.5L107.3,708.9L106.5,711.3L105.7,713.6L105.0,716.1L104.4,718.5L103.8,720.9L103.2,723.4L102.7,725.8L102.2,728.3L101.8,730.8L101.3,733.2L100.9,735.7L100.5,738.2L100.1,740.7L99.7,743.2L99.3,745.6L99.0,748.1L98.7,750.6L98.4,753.1L98.2,755.6L98.0,758.1L97.8,760.6L97.7,763.1L97.5,765.6L97.5,768.2L97.4,770.7L97.3,773.2L97.3,775.7L97.3,778.2L97.3,780.7L97.3,783.2L97.3,785.7L97.3,788.3L97.3,790.8L97.3,793.3L97.3,795.8L97.4,798.3L97.4,800.8L97.5,803.3L97.5,805.8L97.5,808.3L97.5,810.9L97.6,813.4L97.7,815.9L98.0,818.4L98.6,820.8L99.4,823.2L100.4,825.5L101.6,827.7L103.1,829.7L104.6,831.7L106.4,833.5L108.2,835.3L110.1,836.9L112.0,838.4L114.1,839.9L116.1,841.4L118.2,842.8L120.2,844.3L122.3,845.7L124.3,847.2L126.2,848.8L128.2,850.4L130.1,852.0L131.9,853.8L133.6,855.6L135.1,857.6L136.4,859.8L137.5,862.0L138.4,864.4L139.1,866.8L139.7,869.2L140.1,871.7L140.3,874.2L140.6,876.7L140.9,879.2L141.2,881.7L141.5,884.2L141.9,886.7L142.3,889.2L142.7,891.6L143.1,894.1L143.5,896.6L143.9,899.1L144.3,901.6L144.7,904.0L145.1,906.5L145.5,909.0L145.9,911.5L146.3,913.9L146.7,916.4L147.2,918.9L147.6,921.4L148.0,923.8L148.4,926.3L148.8,928.8L149.3,931.3L149.7,933.8L150.1,936.2L150.6,938.7L151.0,941.2L151.4,943.7L151.9,946.1L152.3,948.6L152.7,951.1L153.2,953.5L153.6,956.0L154.1,958.5L154.5,961.0L154.9,963.4L155.4,965.9L155.9,968.4L156.3,970.8L156.8,973.3L157.3,975.8L157.8,978.2L158.2,980.7L158.8,983.2L159.3,985.6L159.9,988.1L160.4,990.5L161.1,992.9L161.7,995.4L162.4,997.8L163.0,1000.2L163.6,1002.7L164.2,1005.1L164.6,1007.6L164.8,1010.1L164.7,1012.6L164.1,1015.0L163.1,1017.3L161.6,1019.3L159.9,1021.2L158.1,1022.9L156.1,1024.4L154.0,1025.8L151.9,1027.1L149.7,1028.4L147.4,1029.5L145.1,1030.5L142.9,1031.7L140.9,1033.2L139.4,1035.2L138.4,1037.5L137.9,1039.9L137.8,1042.4L137.9,1044.9L138.1,1047.4L138.5,1049.9L139.0,1052.4L139.6,1054.8L140.2,1057.2L140.9,1059.7L141.6,1062.1L142.4,1064.5L143.2,1066.8L144.0,1069.2L144.8,1071.6L145.7,1073.9L146.6,1076.3L147.4,1078.7L148.3,1081.0L149.2,1083.4L150.1,1085.7L151.0,1088.0L151.9,1090.4L152.8,1092.7L153.7,1095.1L154.6,1097.4L155.6,1099.7L156.6,1102.1L157.5,1104.4L158.5,1106.7L159.5,1109.0L160.6,1111.3L161.7,1113.5L162.8,1115.8L163.9,1118.0L165.0,1120.3L166.2,1122.5L167.4,1124.7L168.6,1126.9L169.8,1129.1L171.1,1131.2L172.4,1133.4L173.8,1135.5L175.1,1137.6L176.5,1139.7L177.9,1141.8L179.3,1143.9L180.7,1146.0L182.1,1148.0L183.6,1150.1L185.1,1152.1L186.6,1154.1L188.2,1156.1L189.8,1158.0L191.4,1159.9L193.0,1161.8L194.7,1163.7L196.4,1165.6L198.1,1167.4L199.8,1169.3L201.6,1171.1L203.3,1172.8L205.2,1174.6L207.0,1176.3L208.9,1178.0L210.8,1179.6L212.8,1181.1L214.8,1182.6L216.9,1184.0L219.0,1185.3L221.2,1186.6L223.4,1187.7L225.6,1188.9L227.9,1190.0L230.1,1191.2L232.4,1192.3L234.6,1193.4L236.9,1194.4L239.2,1195.5L241.5,1196.5L243.8,1197.6L246.1,1198.6L248.4,1199.6L250.7,1200.6L253.0,1201.6L255.3,1202.6L257.4,1203.9L259.4,1205.5L261.1,1207.3L262.5,1209.4L263.8,1211.6L264.8,1213.8L265.8,1216.2L266.6,1218.5L267.2,1221.0L267.7,1223.4L267.8,1225.9L267.5,1228.4L266.8,1230.8L265.6,1233.0L264.0,1234.9L262.0,1236.5L259.8,1237.7L257.5,1238.7L255.2,1239.6L252.8,1240.5L250.4,1241.2L248.0,1242.0L245.6,1242.6L243.2,1243.3L240.7,1243.9L238.3,1244.5L235.9,1245.1L233.4,1245.7L231.0,1246.3L228.5,1246.9L226.1,1247.4L223.6,1247.9L221.2,1248.5L218.7,1249.0L216.2,1249.5L213.8,1249.9L211.3,1250.4L208.8,1250.8L206.3,1251.2L203.8,1251.5L201.4,1251.8L198.9,1252.1L196.4,1252.3L193.8,1252.5L191.3,1252.5L188.8,1252.6L186.3,1252.5L183.8,1252.4L181.3,1252.2L178.8,1252.0L176.3,1251.6L173.9,1251.0L171.6,1250.0L169.4,1248.8L167.3,1247.3L165.4,1245.7L163.5,1244.0L161.8,1242.2L160.5,1240.1L159.7,1237.8L159.4,1235.3L159.3,1232.8L159.3,1230.2L159.2,1227.7L158.8,1225.2L158.4,1222.8L157.8,1220.3L157.2,1217.9L156.6,1215.5L155.9,1213.1L155.0,1210.7L153.9,1208.4L152.6,1206.3L151.2,1204.2L149.7,1202.2L148.1,1200.2L146.5,1198.3L144.8,1196.4L143.2,1194.6L141.5,1192.7L139.8,1190.8L138.2,1188.9L136.6,1187.0L135.0,1185.0L133.5,1183.0L132.0,1181.0L130.6,1178.9L129.2,1176.9L127.8,1174.7L126.5,1172.6L125.2,1170.5L123.9,1168.3L122.6,1166.2L121.3,1164.0L120.0,1161.9L118.7,1159.7L117.3,1157.6L115.9,1155.5L114.5,1153.4L113.1,1151.4L111.7,1149.3L110.2,1147.2L108.9,1145.1L107.5,1143.0L106.3,1140.8L105.1,1138.6L104.0,1136.3L103.0,1134.1L102.0,1131.7L101.1,1129.4L100.2,1127.1L99.3,1124.7L98.5,1122.3L97.7,1120.0L96.9,1117.6L96.1,1115.2L95.3,1112.8L94.5,1110.4L93.7,1108.0L93.0,1105.6L92.2,1103.2L91.4,1100.9L90.7,1098.5L89.9,1096.1L89.2,1093.7L88.4,1091.3L87.7,1088.9L87.0,1086.5L86.2,1084.1L85.5,1081.6L84.8,1079.2L84.1,1076.8L83.4,1074.4L82.7,1072.0L82.0,1069.6L81.3,1067.2L80.6,1064.8L79.9,1062.4L79.2,1060.0L78.5,1057.5L77.8,1055.1L77.1,1052.7L76.4,1050.3L75.7,1047.9L75.0,1045.5L74.3,1043.0L73.6,1040.6L73.0,1038.2L72.3,1035.8L71.6,1033.4L70.9,1031.0L70.3,1028.5L69.6,1026.1L68.9,1023.7L68.2,1021.3L67.6,1018.9L66.9,1016.4L66.2,1014.0L65.6,1011.6L64.9,1009.2L64.3,1006.7L63.6,1004.3L63.0,1001.9L62.3,999.5L61.7,997.0L61.1,994.6L60.4,992.2L59.8,989.7L59.2,987.3L58.6,984.9L58.0,982.4L57.5,980.0L56.9,977.5L56.4,975.0L55.9,972.6L55.4,970.1L55.0,967.6L54.6,965.2L54.1,962.7L53.7,960.2L53.3,957.7L53.0,955.3L52.6,952.8L52.2,950.3L51.9,947.8L51.5,945.3L51.1,942.8L50.8,940.3L50.4,937.9Z" fill="none" stroke="#bbb" stroke-width="0.8" stroke-dasharray="6 5"/>
  <path d="M961.6,99.6L961.5,102.1L961.4,104.6L961.2,107.1L961.1,109.6L960.9,112.1L960.8,114.6L960.6,117.1L960.4,119.7L960.2,122.2L960.1,124.7L959.9,127.2L959.7,129.7L959.5,132.2L959.3,134.7L959.0,137.2L958.8,139.7L958.6,142.2L958.3,144.7L958.1,147.2L957.8,149.7L957.5,152.2L957.3,154.7L957.0,157.2L956.7,159.7L956.4,162.2L956.0,164.6L955.7,167.1L955.4,169.6L955.0,172.1L954.7,174.6L954.3,177.1L954.0,179.6L953.6,182.1L953.2,184.5L952.9,187.0L952.5,189.5L952.1,192.0L951.7,194.5L951.3,196.9L950.8,199.4L950.4,201.9L950.0,204.4L949.6,206.9L949.1,209.3L948.7,211.8L948.2,214.3L947.8,216.7L947.3,219.2L946.8,221.7L946.4,224.1L945.9,226.6L945.4,229.1L944.9,231.5L944.4,234.0L943.9,236.5L943.4,238.9L942.8,241.4L942.3,243.8L941.7,246.3L941.2,248.7L940.6,251.2L940.0,253.6L939.5,256.1L938.8,258.5L938.2,260.9L937.6,263.4L937.0,265.8L936.3,268.2L935.6,270.6L934.9,273.0L934.2,275.5L933.5,277.9L932.8,280.3L932.0,282.7L931.3,285.1L930.5,287.4L929.7,289.8L928.9,292.2L928.1,294.6L927.2,296.9L926.4,299.3L925.5,301.6L924.6,304.0L923.6,306.3L922.7,308.6L921.7,311.0L920.7,313.3L919.7,315.6L918.6,317.8L917.5,320.1L916.4,322.4L915.3,324.6L914.2,326.9L913.0,329.1L911.9,331.3L910.7,333.5L909.5,335.7L908.3,337.9L907.0,340.1L905.8,342.3L904.5,344.5L903.3,346.6L902.0,348.8L900.7,350.9L899.3,353.1L898.0,355.2L896.6,357.3L895.3,359.4L893.9,361.5L892.5,363.6L891.1,365.7L889.7,367.8L888.2,369.8L886.7,371.8L885.3,373.9L883.8,375.9L882.2,377.9L880.7,379.9L879.2,381.9L877.6,383.8L876.0,385.8L874.4,387.7L872.8,389.7L871.2,391.6L869.6,393.5L868.0,395.5L866.4,397.4L864.8,399.3L863.1,401.2L861.5,403.1L859.9,405.0L858.3,407.0L856.7,408.9L855.1,410.8L853.5,412.8L851.9,414.7L850.3,416.6L848.6,418.5L847.0,420.5L845.4,422.4L843.7,424.3L842.1,426.2L840.4,428.0L838.7,429.9L837.0,431.7L835.3,433.6L833.5,435.4L831.8,437.1L830.0,438.9L828.2,440.6L826.3,442.4L824.5,444.0L822.6,445.7L820.6,447.3L818.7,448.9L816.7,450.4L814.7,451.9L812.7,453.4L810.6,454.9L808.5,456.3L806.5,457.7L804.4,459.1L802.2,460.4L800.1,461.7L798.0,463.1L795.8,464.4L793.7,465.7L791.5,466.9L789.3,468.2L787.2,469.4L785.0,470.7L782.8,471.9L780.6,473.1L778.4,474.3L776.2,475.5L774.0,476.7L771.8,477.9L769.6,479.1L767.3,480.3L765.1,481.5L762.9,482.7L760.7,483.9L758.5,485.1L756.3,486.3L754.1,487.5L751.8,488.6L749.6,489.7L747.3,490.9L745.1,492.0L742.8,493.0L740.6,494.1L738.3,495.2L736.0,496.3L733.7,497.3" fill="none" stroke="#fa0" stroke-width="5" opacity="0.5"/>
  <line x1="42.54699330653926" y1="936.5217472336193" x2="57.43923485423158" y2="934.2350602719146" stroke="#c00" stroke-width="3"/>
  <circle cx="49.99311408038542" cy="935.3784037527669" r="4" fill="#e33"/><text x="56.99311408038542" y="939.3784037527669" font-size="13" fill="#222">sf (0)</text><circle cx="63.68174141846515" cy="618.1464784050248" r="4" fill="#e33"/><text x="70.68174141846515" y="622.1464784050248" font-size="13" fill="#222">steDevote (256)</text><circle cx="408.7729344220873" cy="547.2623263995624" r="4" fill="#e33"/><text x="415.7729344220873" y="551.2623263995624" font-size="13" fill="#222">beauRivage (538)</text><circle cx="692.0418675143186" cy="329.03663394585215" r="4" fill="#e33"/><text x="699.0418675143186" y="333.03663394585215" font-size="13" fill="#222">massenet (878)</text><circle cx="639.8831403270887" cy="267.4428991616346" r="4" fill="#e33"/><text x="646.8831403270887" y="271.4428991616346" font-size="13" fill="#222">casino (944)</text><circle cx="798.5593190558056" cy="38.742836010491146" r="4" fill="#e33"/><text x="805.5593190558056" y="42.742836010491146" font-size="13" fill="#222">mirabeau (1168)</text><circle cx="886.6636321128184" cy="163.3389524772224" r="4" fill="#e33"/><text x="893.6636321128184" y="167.3389524772224" font-size="13" fill="#222">hairpin (1302)</text><circle cx="855.5268332006082" cy="76.02820982819458" r="4" fill="#e33"/><text x="862.5268332006082" y="80.02820982819458" font-size="13" fill="#222">mirabeauBas (1390)</text><circle cx="955.7582198314557" cy="43.57091309539328" r="4" fill="#e33"/><text x="962.7582198314557" y="47.57091309539328" font-size="13" fill="#222">portier (1478)</text><circle cx="469.2562872705486" cy="579.2557343150326" r="4" fill="#e33"/><text x="476.2562872705486" y="583.2557343150326" font-size="13" fill="#222">chicane (2134)</text><circle cx="415.499849274154" cy="601.0807468405158" r="4" fill="#e33"/><text x="422.499849274154" y="605.0807468405158" font-size="13" fill="#222">tabac (2194)</text><circle cx="101.62958079740832" cy="827.6637235989291" r="4" fill="#e33"/><text x="108.62958079740832" y="831.6637235989291" font-size="13" fill="#222">piscineIn (2572)</text><circle cx="138.40368845220056" cy="1037.4532235974377" r="4" fill="#e33"/><text x="145.40368845220056" y="1041.4532235974377" font-size="13" fill="#222">piscineOut (2764)</text><circle cx="265.6275154007883" cy="1233.0473490820716" r="4" fill="#e33"/><text x="272.6275154007883" y="1237.0473490820716" font-size="13" fill="#222">rascasse (2962)</text><circle cx="165.39575573626" cy="1245.726030780072" r="4" fill="#e33"/><text x="172.39575573626" y="1249.726030780072" font-size="13" fill="#222">antonyNoghes (3046)</text>
</svg>